<?xml version="1.0" encoding="UTF-8"?>
<svg version="1.1" xmlns="http://www.w3.org/2000/svg" width="640" height="427">
<path d="M0 0 C211.2 0 422.4 0 640 0 C640 140.91 640 281.82 640 427 C428.8 427 217.6 427 0 427 C0 286.09 0 145.18 0 0 Z " fill="#005430" transform="translate(0,0)"/>
<path d="M0 0 C2.71733717 2.31641857 3.50123676 4.00692587 4.125 7.5 C4.28355469 8.38171875 4.44210937 9.2634375 4.60546875 10.171875 C5.00449385 13.03221333 5.23680972 15.86950418 5.4375 18.75 C5.79477379 23.10504428 6.45796361 26.32816965 9 30 C12.35199196 32.2571579 14.81121414 32.09390308 18.75 31.625 C19.73484375 31.51414063 20.7196875 31.40328125 21.734375 31.2890625 C22.48203125 31.19367188 23.2296875 31.09828125 24 31 C23.66226563 29.92621094 23.32453125 28.85242188 22.9765625 27.74609375 C22.52599518 26.30991042 22.07547697 24.87371168 21.625 23.4375 C21.40328125 22.73302734 21.1815625 22.02855469 20.953125 21.30273438 C20.29540567 19.20383594 19.64751653 17.10206462 19 15 C18.4121875 13.12828125 18.4121875 13.12828125 17.8125 11.21875 C16.86853513 7.47919686 17.2346533 4.75019885 18 1 C21.34998521 2.11666174 21.79340222 2.74694925 23.6875 5.5625 C24.12449219 6.20316406 24.56148437 6.84382813 25.01171875 7.50390625 C25.33785156 7.99761719 25.66398438 8.49132812 26 9 C26.55171875 8.76410156 27.1034375 8.52820313 27.671875 8.28515625 C31.11783087 7.86308447 32.52794319 9.39595739 35.25 11.4375 C36.14203125 12.09621094 37.0340625 12.75492188 37.953125 13.43359375 C38.96632813 14.20896484 38.96632813 14.20896484 40 15 C39.01 15.33 38.02 15.66 37 16 C43.80007728 23.9900908 50.99295152 31.22718406 59 38 C58.59545022 33.92443686 58.18640048 29.84935296 57.77319336 25.7746582 C57.63328585 24.38871467 57.49460403 23.00264684 57.35717773 21.61645508 C57.15932083 19.62288606 56.9566757 17.6297941 56.75390625 15.63671875 C56.63345947 14.43748779 56.5130127 13.23825684 56.38891602 12.00268555 C56.09187839 8.95605185 56.09187839 8.95605185 55 6 C55.9375 3.8125 55.9375 3.8125 57 2 C57.66 2 58.32 2 59 2 C59.86883706 3.57533086 60.71959068 5.16064509 61.5625 6.75 C62.03816406 7.63171875 62.51382813 8.5134375 63.00390625 9.421875 C64.07998186 12.20701188 64.06528748 13.26980214 63 16 C62.67 15.67 62.34 15.34 62 15 C62.22423156 19.01297166 62.60754329 23.00028162 63 27 C63.03834961 27.65838867 63.07669922 28.31677734 63.11621094 28.99511719 C63.92633816 42.23975533 69.09877066 48.40069909 78.4375 57.41943359 C83.23466346 62.27206426 85.22745802 66.7969382 85.3125 73.5625 C85.23361787 75.04323034 85.13869483 76.52367061 85 78 C84.58234375 77.15115234 84.58234375 77.15115234 84.15625 76.28515625 C79.5872794 67.25526502 73.97575192 60.25147334 67 53 C67.0721875 53.77859375 67.144375 54.5571875 67.21875 55.359375 C67.83540309 62.79347061 68.1087107 70.16721369 68.125 77.625 C68.13176758 78.92195801 68.13176758 78.92195801 68.13867188 80.24511719 C68.13673828 81.06399414 68.13480469 81.88287109 68.1328125 82.7265625 C68.13168457 83.45439941 68.13055664 84.18223633 68.12939453 84.93212891 C67.99608792 87.06251943 67.58158914 88.95028811 67 91 C66.34 91 65.68 91 65 91 C64.67 84.07 64.34 77.14 64 70 C61.82814068 70.79866415 61.82814068 70.79866415 61.3203125 72.8828125 C59.32221257 76.08686623 56.30049825 76.72670709 52.875 77.875 C51.4295673 78.38768208 49.98425848 78.90071351 48.5390625 79.4140625 C47.79301758 79.67348633 47.04697266 79.93291016 46.27832031 80.20019531 C42.5825439 81.49759818 38.91717536 82.87427684 35.25 84.25 C34.58339355 84.4960498 33.91678711 84.74209961 33.22998047 84.99560547 C30.05924376 86.17516837 26.98465627 87.40215371 24 89 C24 89.66 24 90.32 24 91 C27.6678852 92.96189209 30.87248551 94.39301257 35 95 C35 97.31 35 99.62 35 102 C25.69066508 102.60713054 18.08714559 99.93449396 10.91015625 93.97265625 C8.49354207 91.47697085 7.07581024 88.9898798 5.75390625 85.796875 C4.94765738 83.71609722 4.94765738 83.71609722 3 81 C2.40251953 82.10408203 2.40251953 82.10408203 1.79296875 83.23046875 C-3.11488561 90.8114464 -11.37642347 95.52010285 -19.25 99.5625 C-19.91088623 99.90901611 -20.57177246 100.25553223 -21.25268555 100.61254883 C-25.64043905 102.75836845 -29.02381109 103.44847135 -34 103 C-36.375 101.875 -36.375 101.875 -38 100 C-38.38419998 98.00914554 -38.72240317 96.00849474 -39 94 C-40.07423218 94.39396973 -40.07423218 94.39396973 -41.17016602 94.79589844 C-48.70388241 97.44776661 -56.04649299 99.0894179 -63.9375 100.25 C-65.03384766 100.42273438 -66.13019531 100.59546875 -67.25976562 100.7734375 C-71.88921802 101.48435889 -76.30746769 102.09998822 -81 102 C-81.66 103.32 -82.32 104.64 -83 106 C-84.32 105.34 -85.64 104.68 -87 104 C-87.50610724 97.92671312 -86.04157942 94.22771463 -83 89 C-82.67 89.66 -82.34 90.32 -82 91 C-82.6590841 92.66967972 -83.32650839 94.33607955 -84 96 C-84 97.32 -84 98.64 -84 100 C-83.01 100.33 -82.02 100.66 -81 101 C-80.67 100.34 -80.34 99.68 -80 99 C-80 99.66 -80 100.32 -80 101 C-75.14243306 99.34945954 -70.28612352 97.69528703 -65.4309082 96.0378418 C-63.78150348 95.47533551 -62.13176856 94.91379642 -60.48168945 94.35327148 C-58.10018341 93.54409169 -55.71991471 92.7313585 -53.33984375 91.91796875 C-52.61039047 91.67096725 -51.88093719 91.42396576 -51.12937927 91.16947937 C-49.07836368 90.46640677 -47.03760141 89.74098311 -45 89 C-44.33195343 88.76262115 -43.66390686 88.52524231 -42.97561646 88.28067017 C-40.83785541 87.49603837 -40.83785541 87.49603837 -38 86 C-36.46954015 82.44107712 -36.46954015 82.44107712 -36 79 C-36.66 78.34 -37.32 77.68 -38 77 C-39.06935224 70.88941575 -35.86054702 66.16941711 -33 61 C-33.928125 60.71125 -34.85625 60.4225 -35.8125 60.125 C-39 59 -39 59 -42 57 C-45.52895615 60.20558567 -46.30166594 62.74674643 -46.5390625 67.34375 C-46.58671558 69.39547995 -46.61475152 71.44774233 -46.625 73.5 C-46.65062051 75.55220265 -46.68420017 77.60432467 -46.7265625 79.65625 C-46.73252441 80.56181641 -46.73848633 81.46738281 -46.74462891 82.40039062 C-47.02368945 85.24115229 -47.82534493 87.4114407 -49 90 C-49.33 90 -49.66 90 -50 90 C-50.495 77.13 -50.495 77.13 -51 64 C-52.65 64 -54.3 64 -56 64 C-58.3125 62.3125 -58.3125 62.3125 -60 60 C-60.10546875 57.35546875 -60.10546875 57.35546875 -60 55 C-61.04800781 55.54140625 -61.04800781 55.54140625 -62.1171875 56.09375 C-63.02726562 56.5578125 -63.93734375 57.021875 -64.875 57.5 C-65.77992188 57.9640625 -66.68484375 58.428125 -67.6171875 58.90625 C-70 60 -70 60 -72 60 C-71.938125 61.27875 -71.87625 62.5575 -71.8125 63.875 C-71.85782469 71.08162557 -73.02044908 77.13571905 -78.08203125 82.44921875 C-81.92373091 86.11884279 -86.08082763 88.95933455 -90.625 91.6875 C-91.41261719 92.16227783 -92.20023438 92.63705566 -93.01171875 93.1262207 C-102.1193857 98.45291006 -112.21663938 102.80953654 -123 101 C-128.9328377 99.14076565 -132.46803842 96.03036952 -136 91 C-138.77162766 82.68511703 -137.22134271 73.91913416 -134 66 C-136.97 66.99 -136.97 66.99 -140 68 C-137.45996166 65.12940872 -134.57703792 63.49118117 -131.25 61.625 C-123.03586992 57.47446465 -123.03586992 57.47446465 -117 51 C-118.32 50.34 -119.64 49.68 -121 49 C-120.42655063 46.13275314 -120.1385485 45.1385485 -118 43 C-115.375 43.375 -115.375 43.375 -113 44 C-113.33 46.31 -113.66 48.62 -114 51 C-113.34 51 -112.68 51 -112 51 C-112.33 52.32 -112.66 53.64 -113 55 C-114.32 55 -115.64 55 -117 55 C-120.89510653 58.31166231 -125.00654106 62.90852293 -126 68 C-126.04701523 72.34107295 -125.98216006 75.68893053 -123.3203125 79.2421875 C-118.80977605 82.65926057 -113.37564311 81.68243131 -108 81 C-99.87626141 78.71076693 -91.47889241 74.43351765 -85 69 C-84.14096327 66.89372466 -84.14096327 66.89372466 -84 65 C-84.73605469 65.04640625 -85.47210938 65.0928125 -86.23046875 65.140625 C-94.10190864 65.43177469 -94.10190864 65.43177469 -98.25 63.4375 C-100 61 -100 61 -100.125 57.5625 C-98.8341269 53.47473518 -97.2317817 51.74701445 -94 49 C-93.67 48.67 -93.34 48.34 -93 48 C-89.67725068 48.06389903 -87.04121159 48.11639116 -84.42578125 50.3359375 C-81 54.36049427 -81 54.36049427 -81 57 C-80.01 57 -79.02 57 -78 57 C-78.05987789 54.53901884 -78.14678474 52.08421588 -78.25 49.625 C-78.26417969 48.92632812 -78.27835938 48.22765625 -78.29296875 47.5078125 C-78.36035782 45.22282354 -78.36035782 45.22282354 -79 42 C-80.82107836 40.61027394 -80.82107836 40.61027394 -83 40 C-88 34.77272727 -88 34.77272727 -88 30 C-88.66 30 -89.32 30 -90 30 C-90.0928125 31.299375 -90.0928125 31.299375 -90.1875 32.625 C-91.47182993 37.95990893 -94.41708012 40.94472008 -99 44 C-103.79689791 44.69920885 -107.77459282 44.71482085 -112 42.25 C-115.68159113 38.10820998 -116.31108126 34.99156313 -116.203125 29.59375 C-115.84317892 24.99751542 -114.94363395 20.5075372 -114 16 C-114.38671875 17.03898437 -114.7734375 18.07796875 -115.171875 19.1484375 C-116.51791054 22.75851607 -117.8738275 26.36479005 -119.23486328 29.96923828 C-119.88908337 31.70561439 -120.53698608 33.4443685 -121.18359375 35.18359375 C-121.51488281 36.05113281 -121.84617188 36.91867188 -122.1875 37.8125 C-122.46980469 38.56144531 -122.75210938 39.31039062 -123.04296875 40.08203125 C-124.10681106 42.21405807 -125.14380424 43.50948869 -127 45 C-129.875 45.3125 -129.875 45.3125 -133 44 C-137.4914717 38.25699843 -138.54340758 32.38581969 -138.37109375 25.25 C-138 23 -138 23 -136 21 C-135.94392578 21.97839844 -135.94392578 21.97839844 -135.88671875 22.9765625 C-135.49219839 28.22136259 -135.07694715 32.55552079 -132 37 C-129.79890052 37.93379978 -128.36707904 38 -126 38 C-125.608125 36.824375 -125.21625 35.64875 -124.8125 34.4375 C-124.53664062 33.62410156 -124.26078125 32.81070313 -123.9765625 31.97265625 C-123.25033909 29.76203219 -122.56380699 27.53828938 -121.8984375 25.30859375 C-119.71076295 18.10689868 -117.71479734 12.20681535 -112 7 C-111.34 7 -110.68 7 -110 7 C-109.82836177 11.03349832 -110.02099431 14.45208284 -111 18.375 C-112.06367843 22.91698454 -112.89067989 27.36104223 -112 32 C-109.33580328 35.3100626 -107.76056339 35.90320102 -103.5625 36.4375 C-99.68315217 35.96108886 -97.2695412 35.12900357 -94 33 C-91.89175773 29.79340929 -91.77425389 27.21506989 -91.83984375 23.4296875 C-91.85080078 22.36878906 -91.86175781 21.30789062 -91.87304688 20.21484375 C-91.90495117 18.56162109 -91.90495117 18.56162109 -91.9375 16.875 C-91.9718386 14.68496027 -92.00200082 12.49484979 -92.02734375 10.3046875 C-92.05429321 8.8503833 -92.05429321 8.8503833 -92.08178711 7.36669922 C-92 5 -92 5 -91 3 C-90.34 3 -89.68 3 -89 3 C-86.32731058 8.45461683 -85.40939429 13.162155 -84.9375 19.1875 C-84.62290856 25.93554608 -84.62290856 25.93554608 -82 32 C-81.01 32.495 -81.01 32.495 -80 33 C-80.30872347 29.4579936 -80.62265332 25.91646694 -80.9375 22.375 C-81.06801758 20.87646484 -81.06801758 20.87646484 -81.20117188 19.34765625 C-81.33168945 17.88779297 -81.33168945 17.88779297 -81.46484375 16.3984375 C-81.54847168 15.45709961 -81.63209961 14.51576172 -81.71826172 13.54589844 C-81.97673085 10.82056935 -81.97673085 10.82056935 -82.75390625 7.4765625 C-83 5 -83 5 -81.5625 3.125 C-80.7890625 2.568125 -80.7890625 2.568125 -80 2 C-78.96692229 3.76371818 -77.94887951 5.53625033 -76.9375 7.3125 C-76.36902344 8.29863281 -75.80054688 9.28476563 -75.21484375 10.30078125 C-74 13 -74 13 -75 16 C-75.495 15.505 -75.495 15.505 -76 15 C-75.67 21.6 -75.34 28.2 -75 35 C-72.03 34.34 -69.06 33.68 -66 33 C-66.50660156 31.33324219 -66.50660156 31.33324219 -67.0234375 29.6328125 C-73.6697941 7.57008415 -73.6697941 7.57008415 -72.03515625 3.73828125 C-71.52275391 2.87783203 -71.52275391 2.87783203 -71 2 C-68.4000702 4.51027705 -66.00908773 6.9863684 -64 10 C-64 10.66 -64 11.32 -64 12 C-64.66 12 -65.32 12 -66 12 C-65.7834375 12.75023438 -65.566875 13.50046875 -65.34375 14.2734375 C-61.01833609 30.17333865 -61.01833609 30.17333865 -64.8125 37.5 C-67 40 -67 40 -70 42 C-71.32 42 -72.64 42 -74 42 C-73.505 47.94 -73.505 47.94 -73 54 C-72.18015625 53.6390625 -71.3603125 53.278125 -70.515625 52.90625 C-69.43796875 52.4421875 -68.3603125 51.978125 -67.25 51.5 C-66.18265625 51.0359375 -65.1153125 50.571875 -64.015625 50.09375 C-61 49 -61 49 -57 49 C-56.71125 49.969375 -56.4225 50.93875 -56.125 51.9375 C-55.35785318 55.10664203 -55.35785318 55.10664203 -53 56 C-53.08040527 55.34854004 -53.16081055 54.69708008 -53.24365234 54.02587891 C-54.80896541 41.22425294 -56.25149956 28.4110616 -57.375 15.5625 C-57.48376465 14.4502002 -57.5925293 13.33790039 -57.70458984 12.19189453 C-57.78918457 11.1604834 -57.8737793 10.12907227 -57.9609375 9.06640625 C-58.04134277 8.15834229 -58.12174805 7.25027832 -58.20458984 6.31469727 C-58 4 -58 4 -56.50244141 2.18334961 C-55.75873291 1.59759155 -55.75873291 1.59759155 -55 1 C-53.96709159 2.93108963 -52.94901328 4.870118 -51.9375 6.8125 C-51.36902344 7.89144531 -50.80054688 8.97039062 -50.21484375 10.08203125 C-49 13 -49 13 -50 16 C-50.99 15.01 -50.99 15.01 -52 14 C-51.37704038 23.65726678 -50.50118431 33.25603663 -49.4375 42.875 C-49.29892578 44.14730469 -49.16035156 45.41960937 -49.01757812 46.73046875 C-48.68068716 49.82057206 -48.3414686 52.91039978 -48 56 C-44.59176526 54.41892359 -42.93791261 52.95796777 -40.75 49.875 C-40.22921875 49.15054688 -39.7084375 48.42609375 -39.171875 47.6796875 C-38.59179688 46.84824219 -38.59179688 46.84824219 -38 46 C-37 48 -37 48 -38 52 C-35.03 52.33 -32.06 52.66 -29 53 C-28.505 48.05 -28.505 48.05 -28 43 C-25 46 -25 46 -24.625 49.3125 C-25.02769109 53.27229573 -25.8930377 55.64446744 -28 59 C-28.99 59.66 -29.98 60.32 -31 61 C-33.34005168 65.50676621 -34.37136045 68.92474054 -34 74 C-33.01 74 -32.02 74 -31 74 C-31.78710062 77.41076934 -32.88276042 80.68461425 -34 84 C-31.45574147 82.7550659 -28.91465639 81.50426112 -26.375 80.25 C-25.66214844 79.90195313 -24.94929688 79.55390625 -24.21484375 79.1953125 C-19.91036093 77.06281642 -15.93558712 74.7561525 -12 72 C-12.66355734 65.79433701 -15.37273676 61.51086744 -18.50390625 56.21875 C-20.08395284 52.81938082 -20.30616274 50.69621926 -20 47 C-19.34 46.67 -18.68 46.34 -18 46 C-15.69 47.98 -13.38 49.96 -11 52 C-11.99 52.33 -12.98 52.66 -14 53 C-13.566875 53.60585937 -13.13375 54.21171875 -12.6875 54.8359375 C-9.10476297 60.22662978 -7.33489349 64.17403749 -7.49609375 70.67578125 C-8.48456636 75.2350154 -10.36009084 77.51783211 -14.07421875 80.31640625 C-15.27073854 81.07767726 -16.47557141 81.82600679 -17.6875 82.5625 C-18.62589722 83.14729126 -18.62589722 83.14729126 -19.58325195 83.74389648 C-31.35365469 91 -31.35365469 91 -36 91 C-35.34 92.32 -34.68 93.64 -34 95 C-23.9792954 96.20939538 -15.48827653 91.50386031 -7.69140625 85.56640625 C-3.21467358 81.93146559 -3.21467358 81.93146559 1 78 C1.4566699 72.2400667 0.24757767 68.09752832 -1.875 62.875 C-2.14441406 62.18535156 -2.41382813 61.49570313 -2.69140625 60.78515625 C-3.80865318 57.93481407 -4.9515033 55.10991522 -6.1875 52.30859375 C-7.07668186 49.78212031 -7.20460231 47.85417728 -7.125 45.1875 C-7.10695313 44.39730469 -7.08890625 43.60710937 -7.0703125 42.79296875 C-7.04710937 42.20128906 -7.02390625 41.60960937 -7 41 C-8.21236328 41.08701172 -8.21236328 41.08701172 -9.44921875 41.17578125 C-18.26457776 41.54796167 -18.26457776 41.54796167 -22.1875 38.625 C-25.94199366 33.18745746 -25.63583744 27.76526344 -24.55078125 21.33984375 C-24.0754766 19.21277116 -23.56913048 17.10375015 -23 15 C-26.65367871 22.7253904 -26.65367871 22.7253904 -29.5625 30.75 C-30.8611404 34.89221506 -32.72303035 38.30973885 -35 42 C-37.75 42.3125 -37.75 42.3125 -41 42 C-44.91541496 38.3021081 -46.78731099 34.13034591 -47.15234375 28.7578125 C-47.2081354 24.97637852 -47.03339647 21.65408991 -46 18 C-46.66 17.67 -47.32 17.34 -48 17 C-45.03 15.02 -42.06 13.04 -39 11 C-38.01 11.495 -38.01 11.495 -37 12 C-41.75 16 -41.75 16 -44 16 C-43.88573491 18.41760876 -43.75900339 20.83347218 -43.625 23.25 C-43.5940625 23.93191406 -43.563125 24.61382812 -43.53125 25.31640625 C-43.31740626 28.98739038 -42.98922945 31.86251616 -41 35 C-39.35 35 -37.7 35 -36 35 C-33.15947414 30.63776386 -31.52703679 26.649947 -30.125 21.625 C-28.42583747 15.81561034 -26.27718754 10.41405754 -22 6 C-21.01 6 -20.02 6 -19 6 C-18.83727295 9.90544925 -18.93991121 13.16746591 -20 16.9375 C-21.3490454 21.97198104 -22.28324613 26.7682676 -19.5625 31.5 C-15.73093442 33.74286765 -12.32526817 33.89049639 -8 33 C-4.93299403 31.27560453 -2.59736407 29.19472813 -1 26 C-0.70517923 19.9561742 -0.78567538 13.93267583 -1.625 7.9375 C-1.99845431 4.01622973 -1.86122302 3.1896532 0 0 Z " fill="#EEF4F1" transform="translate(303,107)"/>
<path d="M0 0 C2.71733717 2.31641857 3.50123676 4.00692587 4.125 7.5 C4.28355469 8.38171875 4.44210937 9.2634375 4.60546875 10.171875 C5.00449385 13.03221333 5.23680972 15.86950418 5.4375 18.75 C5.79477379 23.10504428 6.45796361 26.32816965 9 30 C12.35199196 32.2571579 14.81121414 32.09390308 18.75 31.625 C19.73484375 31.51414063 20.7196875 31.40328125 21.734375 31.2890625 C22.85585938 31.14597656 22.85585938 31.14597656 24 31 C23.66226563 29.92621094 23.32453125 28.85242188 22.9765625 27.74609375 C22.52599518 26.30991042 22.07547697 24.87371168 21.625 23.4375 C21.40328125 22.73302734 21.1815625 22.02855469 20.953125 21.30273438 C20.29540567 19.20383594 19.64751653 17.10206462 19 15 C18.4121875 13.12828125 18.4121875 13.12828125 17.8125 11.21875 C16.86853513 7.47919686 17.2346533 4.75019885 18 1 C21.34998521 2.11666174 21.79340222 2.74694925 23.6875 5.5625 C24.12449219 6.20316406 24.56148438 6.84382813 25.01171875 7.50390625 C25.33785156 7.99761719 25.66398437 8.49132812 26 9 C26.55171875 8.76410156 27.1034375 8.52820313 27.671875 8.28515625 C31.11783087 7.86308447 32.52794319 9.39595739 35.25 11.4375 C36.14203125 12.09621094 37.0340625 12.75492188 37.953125 13.43359375 C38.62859375 13.95050781 39.3040625 14.46742187 40 15 C39.01 15.33 38.02 15.66 37 16 C43.80007728 23.9900908 50.99295152 31.22718406 59 38 C58.59545022 33.92443686 58.18640048 29.84935296 57.77319336 25.7746582 C57.63328585 24.38871467 57.49460403 23.00264684 57.35717773 21.61645508 C57.15932083 19.62288606 56.9566757 17.6297941 56.75390625 15.63671875 C56.63345947 14.43748779 56.5130127 13.23825684 56.38891602 12.00268555 C56.09187839 8.95605185 56.09187839 8.95605185 55 6 C55.9375 3.8125 55.9375 3.8125 57 2 C57.66 2 58.32 2 59 2 C59.86883706 3.57533086 60.71959068 5.16064509 61.5625 6.75 C62.03816406 7.63171875 62.51382813 8.5134375 63.00390625 9.421875 C64.07998186 12.20701188 64.06528748 13.26980214 63 16 C62.505 15.505 62.505 15.505 62 15 C62.22423156 19.01297166 62.60754329 23.00028162 63 27 C63.03834961 27.65838867 63.07669922 28.31677734 63.11621094 28.99511719 C63.92633816 42.23975533 69.09877066 48.40069909 78.4375 57.41943359 C83.23466346 62.27206426 85.22745802 66.7969382 85.3125 73.5625 C85.23361787 75.04323034 85.13869483 76.52367061 85 78 C84.58234375 77.15115234 84.58234375 77.15115234 84.15625 76.28515625 C79.5872794 67.25526502 73.97575192 60.25147334 67 53 C67.10828125 54.16789062 67.10828125 54.16789062 67.21875 55.359375 C67.83540309 62.79347061 68.1087107 70.16721369 68.125 77.625 C68.12951172 78.48963867 68.13402344 79.35427734 68.13867188 80.24511719 C68.13673828 81.06399414 68.13480469 81.88287109 68.1328125 82.7265625 C68.13168457 83.45439941 68.13055664 84.18223633 68.12939453 84.93212891 C67.99608792 87.06251943 67.58158914 88.95028811 67 91 C66.34 91 65.68 91 65 91 C64.505 80.605 64.505 80.605 64 70 C49.15 70 34.3 70 19 70 C22.10332212 66.89667788 24.55109427 65.58214995 28.5 63.75 C29.6446875 63.20859375 30.789375 62.6671875 31.96875 62.109375 C35 61 35 61 38 62 C38.495 61.01 38.495 61.01 39 60 C41.06640625 59.3671875 41.06640625 59.3671875 43.5625 58.875 C44.38878906 58.70742187 45.21507812 58.53984375 46.06640625 58.3671875 C46.70449219 58.24601562 47.34257812 58.12484375 48 58 C48.33 55.36 48.66 52.72 49 50 C47.61447798 48.98576166 46.21605712 47.98912998 44.8125 47 C44.03519531 46.443125 43.25789063 45.88625 42.45703125 45.3125 C39.67691407 43.82741355 38.10538647 43.58246905 35 44 C32.72783152 45.83737827 32.72783152 45.83737827 32.8046875 48.6015625 C32.82789063 49.59929687 32.85109375 50.59703125 32.875 51.625 C32.89304687 52.62789062 32.91109375 53.63078125 32.9296875 54.6640625 C32.95289063 55.43492187 32.97609375 56.20578125 33 57 C31.9378125 57.50789063 30.875625 58.01578125 29.78125 58.5390625 C16.67029329 63.878361 16.67029329 63.878361 8 73.875 C8 74.57625 8 75.2775 8 76 C7.34 76 6.68 76 6 76 C5.91363281 75.21238281 5.82726562 74.42476563 5.73828125 73.61328125 C4.32236048 62.63664777 1.12870186 52.29872006 -5 43 C-7.65182391 41.67408805 -9.85273357 41.85218676 -12.8125 41.75 C-19.5138792 41.25985116 -19.5138792 41.25985116 -22.1875 38.5625 C-25.98469532 33.19405144 -25.62780799 27.71771514 -24.55078125 21.33984375 C-24.0754766 19.21277116 -23.56913048 17.10375015 -23 15 C-26.65367871 22.7253904 -26.65367871 22.7253904 -29.5625 30.75 C-30.8611404 34.89221506 -32.72303035 38.30973885 -35 42 C-37.75 42.3125 -37.75 42.3125 -41 42 C-44.91541496 38.3021081 -46.78731099 34.13034591 -47.15234375 28.7578125 C-47.2081354 24.97637852 -47.03339647 21.65408991 -46 18 C-46.66 17.67 -47.32 17.34 -48 17 C-45.03 15.02 -42.06 13.04 -39 11 C-38.34 11.33 -37.68 11.66 -37 12 C-41.75 16 -41.75 16 -44 16 C-43.88573491 18.41760876 -43.75900339 20.83347218 -43.625 23.25 C-43.5940625 23.93191406 -43.563125 24.61382812 -43.53125 25.31640625 C-43.31740626 28.98739038 -42.98922945 31.86251616 -41 35 C-39.35 35 -37.7 35 -36 35 C-33.15947414 30.63776386 -31.52703679 26.649947 -30.125 21.625 C-28.42583747 15.81561034 -26.27718754 10.41405754 -22 6 C-21.01 6 -20.02 6 -19 6 C-18.83727295 9.90544925 -18.93991121 13.16746591 -20 16.9375 C-21.3490454 21.97198104 -22.28324613 26.7682676 -19.5625 31.5 C-15.73093442 33.74286765 -12.32526817 33.89049639 -8 33 C-4.93299403 31.27560453 -2.59736407 29.19472813 -1 26 C-0.70517923 19.9561742 -0.78567538 13.93267583 -1.625 7.9375 C-1.99845431 4.01622973 -1.86122302 3.1896532 0 0 Z " fill="#085937" transform="translate(303,107)"/>
<path d="M0 0 C3.54431871 1.18143957 3.97677618 2.33798727 5.60131836 5.55786133 C5.8978833 6.17814209 6.19444824 6.79842285 6.5 7.4375 C6.96128296 8.38822388 6.96128296 8.38822388 7.43188477 9.3581543 C11.36239478 17.64565196 13.44660877 24.77008551 13 34 C13.66 34 14.32 34 15 34 C14.7834375 32.948125 14.7834375 32.948125 14.5625 31.875 C15.11357054 28.25367929 16.63800344 26.91756636 19.45703125 24.69140625 C22.78935033 22.47497897 26.23096839 20.52796489 29.75 18.625 C30.41201416 18.26688232 31.07402832 17.90876465 31.75610352 17.53979492 C34.69134021 16.00652932 36.64131311 15 40 15 C39.505 14.01 39.505 14.01 39 13 C38.796875 10.94140625 38.796875 10.94140625 38.75 8.5625 C38.72421875 7.78003906 38.6984375 6.99757812 38.671875 6.19140625 C39 4 39 4 40.31640625 2.21875 C42 1 42 1 45.1875 0.9375 C50.05229035 2.29326125 53.1947611 4.76801787 57 8 C56.125 13.75 56.125 13.75 55 16 C51.65489648 17.62734766 49.81164166 18 46 18 C45.67 19.32 45.34 20.64 45 22 C44.505 21.01 44.505 21.01 44 20 C42.6640522 20.40820627 41.33139832 20.82719107 40 21.25 C39.2575 21.48203125 38.515 21.7140625 37.75 21.953125 C34.05041941 23.36148806 30.54066469 25.22966766 27 27 C40.86 27 54.72 27 69 27 C67 33 67 33 63.8671875 34.6875 C62.54430694 35.14818794 61.21272028 35.58436697 59.875 36 C58.42948125 36.49418879 56.98417497 36.98899942 55.5390625 37.484375 C54.79301758 37.73123047 54.04697266 37.97808594 53.27832031 38.23242188 C49.56871331 39.48220803 45.91212619 40.868515 42.25 42.25 C41.58339355 42.49621094 40.91678711 42.74242187 40.22998047 42.99609375 C37.05899705 44.17493431 33.98461835 45.40217401 31 47 C31 47.66 31 48.32 31 49 C34.6678852 50.96189209 37.87248551 52.39301257 42 53 C42 55.31 42 57.62 42 60 C32.69066508 60.60713054 25.08714559 57.93449396 17.91015625 51.97265625 C15.49354207 49.47697085 14.07581024 46.9898798 12.75390625 43.796875 C11.94765738 41.71609722 11.94765738 41.71609722 10 39 C9.60167969 39.73605469 9.20335937 40.47210938 8.79296875 41.23046875 C3.88511439 48.8114464 -4.37642347 53.52010285 -12.25 57.5625 C-12.91088623 57.90901611 -13.57177246 58.25553223 -14.25268555 58.61254883 C-18.64043905 60.75836845 -22.02381109 61.44847135 -27 61 C-29.375 59.875 -29.375 59.875 -31 58 C-31.38419998 56.00914554 -31.72240317 54.00849474 -32 52 C-32.71615479 52.26264648 -33.43230957 52.52529297 -34.17016602 52.79589844 C-41.70388241 55.44776661 -49.04649299 57.0894179 -56.9375 58.25 C-58.03384766 58.42273438 -59.13019531 58.59546875 -60.25976562 58.7734375 C-64.88921802 59.48435889 -69.30746769 60.09998822 -74 60 C-74.66 61.32 -75.32 62.64 -76 64 C-77.32 63.34 -78.64 62.68 -80 62 C-80.50610724 55.92671312 -79.04157942 52.22771463 -76 47 C-75.67 47.66 -75.34 48.32 -75 49 C-75.6590841 50.66967972 -76.32650839 52.33607955 -77 54 C-77 55.32 -77 56.64 -77 58 C-76.01 58.33 -75.02 58.66 -74 59 C-73.67 58.34 -73.34 57.68 -73 57 C-73 57.66 -73 58.32 -73 59 C-68.17840496 57.36966822 -63.35876578 55.73371576 -58.54077148 54.09277344 C-56.90521575 53.53657815 -55.26915712 52.98185919 -53.63256836 52.42871094 C-41.10723522 48.24336926 -41.10723522 48.24336926 -29 43 C-28.32573975 42.67821777 -27.65147949 42.35643555 -26.95678711 42.02490234 C-24.94160495 41.05407067 -22.93778757 40.06362721 -20.9375 39.0625 C-19.90206055 38.54526367 -19.90206055 38.54526367 -18.84570312 38.01757812 C-14.04863072 35.59412795 -9.47578536 32.98385691 -5 30 C-5.66355734 23.79433701 -8.37273676 19.51086744 -11.50390625 14.21875 C-13.08395284 10.81938082 -13.30616274 8.69621926 -13 5 C-12.34 4.67 -11.68 4.34 -11 4 C-8.69 5.98 -6.38 7.96 -4 10 C-4.99 10.33 -5.98 10.66 -7 11 C-6.566875 11.60585937 -6.13375 12.21171875 -5.6875 12.8359375 C-2.10476297 18.22662978 -0.33489349 22.17403749 -0.49609375 28.67578125 C-1.48456636 33.2350154 -3.36009084 35.51783211 -7.07421875 38.31640625 C-8.27073854 39.07767726 -9.47557141 39.82600679 -10.6875 40.5625 C-11.62589722 41.14729126 -11.62589722 41.14729126 -12.58325195 41.74389648 C-24.35365469 49 -24.35365469 49 -29 49 C-28.34 50.32 -27.68 51.64 -27 53 C-16.9792954 54.20939538 -8.48827653 49.50386031 -0.69140625 43.56640625 C3.78532642 39.93146559 3.78532642 39.93146559 8 36 C8.4566699 30.2400667 7.24757767 26.09752832 5.125 20.875 C4.85558594 20.18535156 4.58617187 19.49570313 4.30859375 18.78515625 C3.18819029 15.92676108 2.04000946 13.09173223 0.8125 10.27734375 C-0.44166399 6.76206681 -0.12572555 3.70890377 0 0 Z " fill="#F0F5F3" transform="translate(296,149)"/>
<path d="M0 0 C2.68125418 2.38246339 4.11423459 4.8545504 5.6875 8.0625 C6.12449219 8.94035156 6.56148438 9.81820312 7.01171875 10.72265625 C8 13 8 13 8 15 C7.01 14.67 6.02 14.34 5 14 C5.26630694 16.27144156 5.53741408 18.54211364 5.8125 20.8125 C5.89870605 21.53171631 5.98491211 22.25093262 6.07373047 22.99194336 C6.55118621 26.84510224 7.09668443 30.66571464 7.80078125 34.484375 C10.56953766 49.64731132 13.92212585 68.96113072 6 83 C5.64164062 83.64066406 5.28328125 84.28132813 4.9140625 84.94140625 C3.49892175 87.23435988 2.44067861 88.77966069 0 90 C0.33 91.98 0.66 93.96 1 96 C5.06475592 96.63106829 5.06475592 96.63106829 9 96 C11.62135537 93.38496114 13.2193191 90.2237262 15 87 C16.19388847 85.0328271 17.40237867 83.07444504 18.625 81.125 C19.17414063 80.22007812 19.72328125 79.31515625 20.2890625 78.3828125 C22 76 22 76 24.08740234 74.62329102 C26.17289618 73.18833582 26.17289618 73.18833582 26.42578125 70.99926758 C26.36970703 69.8336731 26.36970703 69.8336731 26.3125 68.64453125 C26.25642578 67.27385498 26.25642578 67.27385498 26.19921875 65.87548828 C26.10060547 64.35930908 26.10060547 64.35930908 26 62.8125 C25.94457031 61.75272949 25.88914062 60.69295898 25.83203125 59.60107422 C24.97272157 45.09211662 23.44137291 30.61790259 21.9375 16.1640625 C21.85830322 15.38384232 21.77910645 14.60362213 21.69750977 13.79975891 C21.36862543 10.71252113 20.98525766 7.95577297 20 5 C20.9375 2.8125 20.9375 2.8125 22 1 C22.66 1 23.32 1 24 1 C25.00484204 2.95585325 26.00373805 4.91476237 27 6.875 C27.556875 7.96554688 28.11375 9.05609375 28.6875 10.1796875 C30 13 30 13 30 15 C29.01 14.67 28.02 14.34 27 14 C27.51712114 22.98157776 28.24173758 31.91652354 29.20532227 40.86108398 C29.72115735 45.76824959 30.11700066 50.66327041 30.3984375 55.58984375 C30.46812744 56.70633301 30.53781738 57.82282227 30.60961914 58.97314453 C30.74196145 61.15145756 30.85657391 63.33094161 30.95092773 65.51123047 C31.37864941 72.22640681 32.46007933 75.95950615 37 81 C39.28484705 82.14242352 40.70836128 82.19812982 43.25 82.25 C43.99765625 82.27578125 44.7453125 82.3015625 45.515625 82.328125 C48.74501222 81.90160216 51.12788214 80.49373792 54 79 C53.76988884 75.76954267 53.53852536 72.53920228 53.30371094 69.30908203 C53.09261708 66.37080807 52.90064501 63.43197826 52.71972656 60.49169922 C52.46747362 56.4642361 52.1571385 52.44379054 51.81982422 48.42260742 C51.68990366 46.76538769 51.57792391 45.1066641 51.48388672 43.44702148 C50.81745817 31.97202546 48.86225208 24.89394531 40.60693359 16.66625977 C38.2122885 14.21711956 36.70147951 11.93912571 35 9 C34.34 8.67 33.68 8.34 33 8 C33 6.02 33 4.04 33 2 C37.66861981 3.60483806 42.09258167 5.97490194 46 9 C46 9.66 46 10.32 46 11 C44.68 10.67 43.36 10.34 42 10 C43.98 12.64 45.96 15.28 48 18 C48.166323 12.0075395 48.166323 12.0075395 47.3125 6.125 C47.209375 5.42375 47.10625 4.7225 47 4 C48.48046875 2.3671875 48.48046875 2.3671875 50 1 C51.03307771 2.76371818 52.05112049 4.53625033 53.0625 6.3125 C53.63097656 7.29863281 54.19945312 8.28476563 54.78515625 9.30078125 C56 12 56 12 55 15 C54.505 14.505 54.505 14.505 54 14 C53.95875 15.216875 53.9175 16.43375 53.875 17.6875 C53.85179687 18.37199219 53.82859375 19.05648437 53.8046875 19.76171875 C54.27726231 25.17742609 56.94364678 28.36975289 60.5625 32.25 C61.36816406 33.12140625 62.17382812 33.9928125 63.00390625 34.890625 C64.48772354 36.45915486 64.48772354 36.45915486 66 38 C65.85779527 34.60400468 65.71116555 31.20821855 65.5625 27.8125 C65.49699951 26.31058105 65.49699951 26.31058105 65.43017578 24.77832031 C65.13418821 18.2539537 64.71564396 11.76691871 64.0859375 5.265625 C64 3 64 3 65 1 C65.66 1 66.32 1 67 1 C68.03041513 2.95330868 69.0490893 4.91281528 70.0625 6.875 C70.63097656 7.96554688 71.19945312 9.05609375 71.78515625 10.1796875 C72.18605469 11.11039063 72.58695312 12.04109375 73 13 C72.67 13.66 72.34 14.32 72 15 C71.01 14.34 70.02 13.68 69 13 C70.0467105 38.67908352 70.0467105 38.67908352 84 59 C87.96017883 64.61025334 91.16387205 69.69282875 91.0625 76.6875 C91.05347656 77.49574219 91.04445313 78.30398437 91.03515625 79.13671875 C91.02355469 79.75160156 91.01195312 80.36648437 91 81 C88.68548866 78.68548866 87.80656793 76.59716456 86.4375 73.625 C83.06018843 66.70276834 78.74797142 61.02232136 74 55 C74.01571045 55.80107178 74.0314209 56.60214355 74.04760742 57.42749023 C74.11041148 61.09742014 74.14913488 64.76723649 74.1875 68.4375 C74.21263672 69.69755859 74.23777344 70.95761719 74.26367188 72.25585938 C74.32071111 79.53786796 73.7964395 85.2547824 71 92 C70.67 92 70.34 92 70 92 C69.97494385 91.20005615 69.9498877 90.4001123 69.92407227 89.57592773 C69.68459904 81.98978609 69.68459904 81.98978609 69.40600586 74.4050293 C68.95953322 62.98329497 68.95953322 62.98329497 69.0625 58.0859375 C69.0625 50.8827559 68.22224732 47.46164133 63.0625 42.25 C61.38042711 40.82689372 59.69378858 39.40914191 58 38 C57.34 37.01 56.68 36.02 56 35 C56.14362477 36.83350768 56.29002705 38.66679783 56.4375 40.5 C56.51871094 41.5209375 56.59992188 42.541875 56.68359375 43.59375 C56.90584485 45.98637917 57.19011168 48.37366411 57.51953125 50.75390625 C58.14252607 55.64543925 58.22158651 60.51131079 58.25 65.4375 C58.270625 66.32759766 58.29125 67.21769531 58.3125 68.13476562 C58.34736002 74.100186 57.74962785 79.61566903 55 85 C49.9073919 89.24384009 45.59245013 90.56831467 39 90 C35.43128816 87.9380776 34.23649977 86.58561847 32.6875 82.75 C32.460625 81.8425 32.23375 80.935 32 80 C31.34 80 30.68 80 30 80 C29.67 82.64 29.34 85.28 29 88 C28.34 88 27.68 88 27 88 C27 85.36 27 82.72 27 80 C22.27139593 82.26150629 20.29041875 85.30941903 17.9375 89.8125 C11.06126611 102.57097753 11.06126611 102.57097753 7.0625 104.1875 C4 104 4 104 1.3125 101.875 C-0.73297957 99.33197135 -2.4452581 96.86399823 -4 94 C-8.94839953 95.456627 -13.8743409 96.93886917 -18.75 98.625 C-22.14304985 99.77610572 -25.43494433 100.54294158 -29 101 C-24.86626386 97.79347333 -20.44244621 95.34155197 -15.875 92.8125 C-15.05128906 92.34908203 -14.22757812 91.88566406 -13.37890625 91.40820312 C-12.59128906 90.97056641 -11.80367188 90.53292969 -10.9921875 90.08203125 C-10.27401855 89.68218018 -9.55584961 89.2823291 -8.81591797 88.87036133 C-7 88 -7 88 -5 88 C-5 83.38 -5 78.76 -5 74 C-4.34 74 -3.68 74 -3 74 C-3 77.63 -3 81.26 -3 85 C1.26382292 82.44170625 3.79901146 80.47259703 6 76 C7.83827259 64.33382152 4.65654838 51.30843848 3.0625 39.75 C2.64308834 36.64901284 2.22606314 33.54771205 1.80943298 30.4463501 C1.55117289 28.53048597 1.29086379 26.61489645 1.02809143 24.699646 C0.35876532 19.80265281 -0.24796234 14.90970964 -0.73316956 9.99078369 C-0.95892062 7.95984139 -0.95892062 7.95984139 -1.58824158 5.88470459 C-2.14363476 3.34255362 -1.31682595 2.1688898 0 0 Z " fill="#ECF2F0" transform="translate(383,108)"/>
<path d="M0 0 C1.4540625 0.0309375 1.4540625 0.0309375 2.9375 0.0625 C2.98004356 2.06204746 2.97830783 4.06291636 2.9375 6.0625 C2.6075 6.3925 2.2775 6.7225 1.9375 7.0625 C2.79504883 7.08231934 3.65259766 7.10213867 4.53613281 7.12255859 C7.72697642 7.20079521 10.9174474 7.28749343 14.10791016 7.37988281 C15.48705243 7.41809338 16.86629167 7.45296002 18.24560547 7.484375 C20.23166967 7.53019624 22.21741679 7.58916263 24.203125 7.6484375 C25.99411621 7.69556885 25.99411621 7.69556885 27.82128906 7.74365234 C30.79738043 8.0481631 32.48873791 8.3932722 34.9375 10.0625 C37.23913882 13.51495824 37.28240322 15.00988713 36.9375 19.0625 C34.9375 21.0625 34.9375 21.0625 32.84375 21.29296875 C32.0496875 21.27878906 31.255625 21.26460938 30.4375 21.25 C29.6434375 21.24355469 28.849375 21.23710937 28.03125 21.23046875 C25.9375 21.0625 25.9375 21.0625 23.9375 20.0625 C22.1479531 19.96592128 20.35464466 19.93269532 18.5625 19.9375 C17.60601562 19.93492187 16.64953125 19.93234375 15.6640625 19.9296875 C13.25374131 20.0470957 11.25945844 20.47935975 8.9375 21.0625 C8.6075 20.7325 8.2775 20.4025 7.9375 20.0625 C6.08858054 19.82886119 4.23261969 19.64946365 2.375 19.5 C1.36308594 19.41621094 0.35117187 19.33242188 -0.69140625 19.24609375 C-1.47386719 19.18550781 -2.25632812 19.12492187 -3.0625 19.0625 C-3.3925 20.3825 -3.7225 21.7025 -4.0625 23.0625 C-5.72861905 23.105221 -7.39632885 23.10313832 -9.0625 23.0625 C-9.3925 22.7325 -9.7225 22.4025 -10.0625 22.0625 C-9.77519945 19.72305264 -9.44313221 17.3885857 -9.0625 15.0625 C-10.4738686 15.06803076 -10.4738686 15.06803076 -11.91374969 15.07367325 C-34.81575042 15.1624996 -57.71772878 15.22821637 -80.61986542 15.26974869 C-91.69520696 15.29036762 -102.77043466 15.31847556 -113.84570312 15.36425781 C-123.49971229 15.40414591 -133.153639 15.42993767 -142.80772829 15.43885398 C-147.91879262 15.44406535 -153.02962106 15.45630026 -158.14060974 15.48542023 C-162.95375179 15.51262038 -167.76656134 15.52093566 -172.57977295 15.51493073 C-174.34379383 15.5160289 -176.10782611 15.52395535 -177.8717804 15.5393219 C-194.75462202 15.67915046 -194.75462202 15.67915046 -201.0625 11.0625 C-201.3925 10.0725 -201.7225 9.0825 -202.0625 8.0625 C-136.7225 8.0625 -71.3825 8.0625 -4.0625 8.0625 C-4.0625 5.7525 -4.0625 3.4425 -4.0625 1.0625 C-3.0625 0.0625 -3.0625 0.0625 0 0 Z " fill="#F3F7F5" transform="translate(403.0625,293.9375)"/>
<path d="M0 0 C0.28875 0.94875 0.5775 1.8975 0.875 2.875 C1.76825109 6.05211578 1.76825109 6.05211578 4 8 C6.475 8.495 6.475 8.495 9 9 C9.66 16.92 10.32 24.84 11 33 C11.99544991 30.01365027 12.12405487 28.00494151 12.140625 24.88671875 C12.15996094 23.88576172 12.17929688 22.88480469 12.19921875 21.85351562 C12.23288189 19.75474809 12.25128737 17.65567648 12.25390625 15.55664062 C12.46315457 6.97195299 12.46315457 6.97195299 15.546875 3.26953125 C16.35640625 2.52058594 17.1659375 1.77164063 18 1 C19.11375 1.639375 20.2275 2.27875 21.375 2.9375 C23.23497087 4.00526106 25.08142937 5.04071468 27 6 C25.20930233 11.62790698 25.20930233 11.62790698 23.875 14 C22.65402631 16.790797 22.74872885 18.98474625 23 22 C23.5878125 22.99 23.5878125 22.99 24.1875 24 C25 26 25 26 24.25 28.83984375 C20.81385677 33.66595464 16.29110362 34.70077772 10.8125 36.5625 C9.73564941 36.945271 8.65879883 37.32804199 7.54931641 37.72241211 C4.37442774 38.84080111 1.18999387 39.92556208 -2 41 C-3.28559814 41.44085938 -3.28559814 41.44085938 -4.59716797 41.890625 C-17.53836092 46.30442373 -17.53836092 46.30442373 -24 46 C-25.37839944 41.45128185 -24.50640362 38.43992645 -23 34 C-22.731875 33.13375 -22.46375 32.2675 -22.1875 31.375 C-21 29 -21 29 -18.5625 26.8125 C-14.01166392 21.81767992 -12.97064434 15.80531996 -12.9375 9.1875 C-12.7734375 6.984375 -12.7734375 6.984375 -12 5 C-8.5579327 2.39716466 -4.40994633 0 0 0 Z " fill="#075835" transform="translate(243,162)"/>
<path d="M0 0 C4.86479035 1.35576125 8.0072611 3.83051787 11.8125 7.0625 C10.9375 12.8125 10.9375 12.8125 9.8125 15.0625 C6.46739648 16.68984766 4.62414166 17.0625 0.8125 17.0625 C0.4825 18.3825 0.1525 19.7025 -0.1875 21.0625 C-0.5175 20.4025 -0.8475 19.7425 -1.1875 19.0625 C-2.5234478 19.47070627 -3.85610168 19.88969107 -5.1875 20.3125 C-5.93 20.54453125 -6.6725 20.7765625 -7.4375 21.015625 C-11.13708059 22.42398806 -14.64683531 24.29216766 -18.1875 26.0625 C-4.3275 26.0625 9.5325 26.0625 23.8125 26.0625 C21.8125 32.0625 21.8125 32.0625 18.6796875 33.75 C17.35679108 34.21064242 16.02520337 34.64681254 14.6875 35.0625 C13.23939495 35.5580436 11.79148389 36.05415436 10.34375 36.55078125 C9.59738281 36.79779785 8.85101563 37.04481445 8.08203125 37.29931641 C4.41866619 38.53120961 0.80523754 39.89111341 -2.8125 41.25 C-3.46234863 41.48783203 -4.11219727 41.72566406 -4.78173828 41.97070312 C-12.04620377 44.17963783 -12.04620377 44.17963783 -17.1875 49.0625 C-22.11760287 48.91310294 -24.38134443 46.27677432 -27.63671875 42.94921875 C-30.384457 39.60625257 -31.56334701 37.04378777 -31.25 32.6875 C-30.58090178 28.27720745 -29.24512379 26.24964738 -25.6953125 23.61328125 C-10.25047229 14.0625 -10.25047229 14.0625 -5.1875 14.0625 C-5.5175 13.4025 -5.8475 12.7425 -6.1875 12.0625 C-6.390625 10.00390625 -6.390625 10.00390625 -6.4375 7.625 C-6.46328125 6.84253906 -6.4890625 6.06007812 -6.515625 5.25390625 C-6.1875 3.0625 -6.1875 3.0625 -4.87109375 1.28125 C-3.1875 0.0625 -3.1875 0.0625 0 0 Z " fill="#F2F6F4" transform="translate(341.1875,149.9375)"/>
<path d="M0 0 C2.625 0.375 2.625 0.375 5 1 C4.67 3.31 4.34 5.62 4 8 C4.66 8 5.32 8 6 8 C5.67 9.32 5.34 10.64 5 12 C3.68 12 2.36 12 1 12 C-2.89510653 15.31166231 -7.00654106 19.90852293 -8 25 C-8.04701523 29.34107295 -7.98216006 32.68893053 -5.3203125 36.2421875 C-0.80977605 39.65926057 4.62435689 38.68243131 10 38 C17.59506266 35.85974544 24.11312898 31.92109945 30.625 27.55078125 C33 26 33 26 35.234375 24.95703125 C37.80278552 23.56486183 38.14823411 21.69725866 39 19 C39.99 19 40.98 19 42 19 C43.19301986 30.01886399 43.19301986 30.01886399 40.7109375 34.140625 C38.59298479 36.06931385 36.45195315 37.51375021 34 39 C32.92363281 39.67804688 31.84726563 40.35609375 30.73828125 41.0546875 C19.22101226 48.09266139 8.77880682 52.62701778 -5 51 C-10.48081571 49.49065316 -13.35384646 45.73197532 -16.0703125 40.96484375 C-17.15854898 38.66491539 -17.70305846 36.52400311 -18 34 C-18.33 33.34 -18.66 32.68 -19 32 C-18.44140625 29.8359375 -18.44140625 29.8359375 -17.5625 27.375 C-17.27503906 26.55773437 -16.98757812 25.74046875 -16.69140625 24.8984375 C-16.34916016 23.95871094 -16.34916016 23.95871094 -16 23 C-17.98 23.66 -19.96 24.32 -22 25 C-19.45996166 22.12940872 -16.57703792 20.49118117 -13.25 18.625 C-5.03586992 14.47446465 -5.03586992 14.47446465 1 8 C-0.32 7.34 -1.64 6.68 -3 6 C-2.42655063 3.13275314 -2.1385485 2.1385485 0 0 Z " fill="#F0F4F2" transform="translate(185,150)"/>
<path d="M0 0 C2.71733717 2.31641857 3.50123676 4.00692587 4.125 7.5 C4.28355469 8.38171875 4.44210937 9.2634375 4.60546875 10.171875 C5.00449385 13.03221333 5.23680972 15.86950418 5.4375 18.75 C5.79477379 23.10504428 6.45796361 26.32816965 9 30 C12.35199196 32.2571579 14.81121414 32.09390308 18.75 31.625 C19.73484375 31.51414063 20.7196875 31.40328125 21.734375 31.2890625 C22.85585938 31.14597656 22.85585938 31.14597656 24 31 C23.66226563 29.92621094 23.32453125 28.85242188 22.9765625 27.74609375 C22.52599518 26.30991042 22.07547697 24.87371168 21.625 23.4375 C21.40328125 22.73302734 21.1815625 22.02855469 20.953125 21.30273438 C20.29540567 19.20383594 19.64751653 17.10206462 19 15 C18.4121875 13.12828125 18.4121875 13.12828125 17.8125 11.21875 C16.86853513 7.47919686 17.2346533 4.75019885 18 1 C22.02550319 2.3418344 22.88285636 4.4227573 25 8 C25 8.66 25 9.32 25 10 C24.34 10 23.68 10 23 10 C23.28875 10.68964844 23.5775 11.37929687 23.875 12.08984375 C26.83942295 19.59353934 28.69597613 26.09501885 25.75 33.875 C23.09550562 38.61516854 23.09550562 38.61516854 20 40 C15.97970529 40.76502696 12.55889746 40.88239479 8.9296875 38.828125 C5.45624861 36.00868088 3.17215207 33.42813003 2 29 C0.68558087 30.9716287 -0.58714134 32.97182015 -1.8125 35 C-4.15444624 38.21181199 -5.31803775 39.55923216 -9 41 C-12.43494515 41.51014037 -15.57509319 41.61862028 -19 41 C-21.82424288 38.80977082 -23.41508603 37.16982793 -25 34 C-25.53537216 27.41367738 -24.71797155 21.35035914 -23 15 C-26.65367871 22.7253904 -26.65367871 22.7253904 -29.5625 30.75 C-30.8611404 34.89221506 -32.72303035 38.30973885 -35 42 C-37.75 42.3125 -37.75 42.3125 -41 42 C-44.91541496 38.3021081 -46.78731099 34.13034591 -47.15234375 28.7578125 C-47.2081354 24.97637852 -47.03339647 21.65408991 -46 18 C-46.66 17.67 -47.32 17.34 -48 17 C-45.03 15.02 -42.06 13.04 -39 11 C-38.34 11.33 -37.68 11.66 -37 12 C-41.75 16 -41.75 16 -44 16 C-43.88573491 18.41760876 -43.75900339 20.83347218 -43.625 23.25 C-43.5940625 23.93191406 -43.563125 24.61382812 -43.53125 25.31640625 C-43.31740626 28.98739038 -42.98922945 31.86251616 -41 35 C-39.35 35 -37.7 35 -36 35 C-33.15947414 30.63776386 -31.52703679 26.649947 -30.125 21.625 C-28.42583747 15.81561034 -26.27718754 10.41405754 -22 6 C-21.01 6 -20.02 6 -19 6 C-18.83727295 9.90544925 -18.93991121 13.16746591 -20 16.9375 C-21.3490454 21.97198104 -22.28324613 26.7682676 -19.5625 31.5 C-15.73093442 33.74286765 -12.32526817 33.89049639 -8 33 C-4.93299403 31.27560453 -2.59736407 29.19472813 -1 26 C-0.70517923 19.9561742 -0.78567538 13.93267583 -1.625 7.9375 C-1.99845431 4.01622973 -1.86122302 3.1896532 0 0 Z " fill="#F4F7F6" transform="translate(303,107)"/>
<path d="M0 0 C0.66 0 1.32 0 2 0 C2.86883706 1.57533086 3.71959068 3.16064509 4.5625 4.75 C5.03816406 5.63171875 5.51382813 6.5134375 6.00390625 7.421875 C7.07998186 10.20701188 7.06528748 11.26980214 6 14 C5.505 13.505 5.505 13.505 5 13 C5.22423156 17.01297166 5.60754329 21.00028162 6 25 C6.03834961 25.65838867 6.07669922 26.31677734 6.11621094 26.99511719 C6.92633816 40.23975533 12.09877066 46.40069909 21.4375 55.41943359 C26.23466346 60.27206426 28.22745802 64.7969382 28.3125 71.5625 C28.23361787 73.04323034 28.13869483 74.52367061 28 76 C27.7215625 75.43410156 27.443125 74.86820312 27.15625 74.28515625 C22.5872794 65.25526502 16.97575192 58.25147334 10 51 C10.10828125 52.16789062 10.10828125 52.16789062 10.21875 53.359375 C10.83540309 60.79347061 11.1087107 68.16721369 11.125 75.625 C11.12951172 76.48963867 11.13402344 77.35427734 11.13867188 78.24511719 C11.13673828 79.06399414 11.13480469 79.88287109 11.1328125 80.7265625 C11.13168457 81.45439941 11.13055664 82.18223633 11.12939453 82.93212891 C10.99608792 85.06251943 10.58158914 86.95028811 10 89 C9.34 89 8.68 89 8 89 C7.93268677 87.90667358 7.93268677 87.90667358 7.86401367 86.79125977 C7.41246975 79.65146746 6.88111091 72.52207212 6.27685547 65.39355469 C6.11067764 63.3566307 5.95903136 61.31833068 5.83642578 59.27832031 C5.16232377 48.28841477 2.00173063 42.64867318 -5.99707031 35.19799805 C-9.27618566 32.27678149 -9.27618566 32.27678149 -13 30 C-13 29.34 -13 28.68 -13 28 C-13.5671875 27.78214844 -14.134375 27.56429687 -14.71875 27.33984375 C-17.73753146 25.56682656 -19.3594794 23.32245208 -21.5 20.5625 C-24.5414888 16.60790079 -24.5414888 16.60790079 -28.265625 13.3515625 C-28.83796875 12.90554687 -29.4103125 12.45953125 -30 12 C-30.25 8.8125 -30.25 8.8125 -30 6 C-26.50155614 6.63389235 -24.15913124 8.05177694 -21.25 10.0625 C-20.05117188 10.88427734 -20.05117188 10.88427734 -18.828125 11.72265625 C-18.22484375 12.14417969 -17.6215625 12.56570312 -17 13 C-17.99 13.33 -18.98 13.66 -20 14 C-13.19992272 21.9900908 -6.00704848 29.22718406 2 36 C1.59545022 31.92443686 1.18640048 27.84935296 0.77319336 23.7746582 C0.63328585 22.38871467 0.49460403 21.00264684 0.35717773 19.61645508 C0.15932083 17.62288606 -0.0433243 15.6297941 -0.24609375 13.63671875 C-0.36654053 12.43748779 -0.4869873 11.23825684 -0.61108398 10.00268555 C-0.90812161 6.95605185 -0.90812161 6.95605185 -2 4 C-1.0625 1.8125 -1.0625 1.8125 0 0 Z " fill="#EFF4F2" transform="translate(360,109)"/>
<path d="M0 0 C0.66 0 1.32 0 2 0 C3.03307771 1.76371818 4.05112049 3.53625033 5.0625 5.3125 C5.63097656 6.29863281 6.19945312 7.28476563 6.78515625 8.30078125 C8 11 8 11 7 14 C6.01 13.34 5.02 12.68 4 12 C4.22719727 13.60717896 4.22719727 13.60717896 4.45898438 15.24682617 C9.49066728 51.1363072 9.49066728 51.1363072 9.5 63.375 C9.50580078 64.1486792 9.51160156 64.9223584 9.51757812 65.71948242 C9.29285983 75.74753644 5.2131648 84.47855484 -1.5625 91.75 C-9.46286181 97.73573331 -20.47272573 98.83214057 -30 100 C-27.22432708 97.7903451 -24.52660785 96.18977465 -21.296875 94.73046875 C-20.39839844 94.31603516 -19.49992187 93.90160156 -18.57421875 93.47460938 C-16.70876241 92.62444635 -14.84159942 91.77801704 -12.97265625 90.93554688 C-3.08440658 86.64211611 -3.08440658 86.64211611 4 79 C4.96508222 63.84346281 3.32858981 48.93926946 1.51098633 33.91845703 C1.42149216 33.17862579 1.33199799 32.43879456 1.23979187 31.67654419 C1.06311977 30.21640331 0.88581288 28.75633909 0.70783997 27.2963562 C0.01616405 21.48438541 -0.42200416 15.68226444 -0.75610352 9.83789062 C-0.89764408 7.07451096 -0.89764408 7.07451096 -1.65209961 4.80273438 C-2 3 -2 3 0 0 Z " fill="#F0F5F2" transform="translate(471,109)"/>
<path d="M0 0 C-0.33 0.7425 -0.66 1.485 -1 2.25 C-2.76187617 8.85703563 -3.44385183 16.84878272 0 23 C5.23473145 27.11750822 10.63604967 26.70178901 17 26 C23.91114315 24.26705664 29.68148029 20.50711666 35.5546875 16.5859375 C38 15 38 15 40.25390625 13.921875 C42.89165277 12.52923926 43.08721651 10.79920271 44 8 C44.53674952 6.56065675 45.07866012 5.12323039 45.625 3.6875 C46.07875 2.470625 46.5325 1.25375 47 0 C47.99 0 48.98 0 50 0 C51.19301986 11.01886399 51.19301986 11.01886399 48.7109375 15.140625 C46.59298479 17.06931385 44.45195315 18.51375021 42 20 C40.92363281 20.67804688 39.84726563 21.35609375 38.73828125 22.0546875 C27.23740483 29.08264422 16.76438263 33.65713698 3 32 C-1.08780123 30.76673116 -3.49739688 28.52837764 -6.4375 25.4375 C-9.68731198 18.28791364 -8.42288005 11.01509347 -5.94921875 3.77734375 C-4.56399041 1.18360344 -2.97461653 0 0 0 Z " fill="#0C5C3A" transform="translate(177,169)"/>
<path d="M0 0 C1.125 1.6875 1.125 1.6875 2 4 C-0.87460289 13.69196711 -11.81851555 19.29545867 -20.15234375 24.01171875 C-28.31339031 28.38567981 -37.66850954 31.5659008 -47 30 C-52.9328377 28.14076565 -56.46803842 25.03036952 -60 20 C-61.04976964 16.85069107 -61.10131595 14.61185544 -61.0625 11.3125 C-61.05347656 10.31863281 -61.04445312 9.32476562 -61.03515625 8.30078125 C-61.02355469 7.54152344 -61.01195312 6.78226563 -61 6 C-60.34 5.67 -59.68 5.34 -59 5 C-58.7525 6.19625 -58.505 7.3925 -58.25 8.625 C-56.91289197 13.87129191 -55.04735807 17.77917879 -50.26171875 20.6328125 C-42.07708511 24.06349726 -33.33727959 22.65603842 -25.3125 19.4375 C-18.77106071 16.6494284 -12.76959068 13.14476497 -7 9 C-6.34902344 8.53335938 -5.69804687 8.06671875 -5.02734375 7.5859375 C-2.70263086 5.7943148 -1.17593291 4.46496553 -0.125 1.6875 C-0.08375 1.130625 -0.0425 0.57375 0 0 Z " fill="#F3F7F5" transform="translate(227,178)"/>
<path d="M0 0 C1.11375 0.639375 2.2275 1.27875 3.375 1.9375 C5.23497087 3.00526106 7.08142937 4.04071468 9 5 C7.20930233 10.62790698 7.20930233 10.62790698 5.875 13 C4.65402631 15.790797 4.74872885 17.98474625 5 21 C5.391875 21.66 5.78375 22.32 6.1875 23 C7 25 7 25 6.0625 28.0625 C3.46892177 31.75638414 1.24765942 32.6346809 -3 34 C-3.99 34 -4.98 34 -6 34 C-5.97714723 29.45722777 -5.89975925 24.9169557 -5.8125 20.375 C-5.80669922 19.08980469 -5.80089844 17.80460937 -5.79492188 16.48046875 C-5.54631696 5.81808036 -5.54631696 5.81808036 -2.44921875 2.1015625 C-1.64097656 1.40804687 -0.83273437 0.71453125 0 0 Z " fill="#045633" transform="translate(261,163)"/>
<path d="M0 0 C0.99 0 1.98 0 3 0 C3.22514824 5.4035577 2.69166838 9.83595969 1 15 C0.01 15.33 -0.98 15.66 -2 16 C-1.67 13.69 -1.34 11.38 -1 9 C-4.65367871 16.7253904 -4.65367871 16.7253904 -7.5625 24.75 C-8.8611404 28.89221506 -10.72303035 32.30973885 -13 36 C-15.75 36.3125 -15.75 36.3125 -19 36 C-22.91541496 32.3021081 -24.78731099 28.13034591 -25.15234375 22.7578125 C-25.2081354 18.97637852 -25.03339647 15.65408991 -24 12 C-24.66 11.67 -25.32 11.34 -26 11 C-23.03 9.02 -20.06 7.04 -17 5 C-16.34 5.33 -15.68 5.66 -15 6 C-19.75 10 -19.75 10 -22 10 C-21.88573491 12.41760876 -21.75900339 14.83347218 -21.625 17.25 C-21.5940625 17.93191406 -21.563125 18.61382812 -21.53125 19.31640625 C-21.31740626 22.98739038 -20.98922945 25.86251616 -19 29 C-17.35 29 -15.7 29 -14 29 C-11.15947414 24.63776386 -9.52703679 20.649947 -8.125 15.625 C-6.42583747 9.81561034 -4.27718754 4.41405754 0 0 Z " fill="#D9E5E0" transform="translate(281,113)"/>
<path d="M0 0 C9.57 0 19.14 0 29 0 C26.20045838 2.79954162 22.87940676 4.02975181 19.3125 5.68359375 C16.72376657 6.92828152 16.72376657 6.92828152 15 10 C14.61500109 11.65549531 14.27206865 13.3222433 14 15 C9.06989713 14.85060294 6.80615557 12.21427432 3.55078125 8.88671875 C1.0914342 5.89461642 0 3.90712871 0 0 Z " fill="#075836" transform="translate(310,184)"/>
<path d="M0 0 C2.625 0.375 2.625 0.375 5 1 C4.67 3.31 4.34 5.62 4 8 C4.66 8 5.32 8 6 8 C5.67 9.32 5.34 10.64 5 12 C3.68 12 2.36 12 1 12 C-4.51148558 16.43577896 -7.57498283 22.49312164 -10 29 C-11.08784335 25.68604014 -11.07262544 25.16419665 -9.5625 21.75 C-9.046875 20.8425 -8.53125 19.935 -8 19 C-10.43671925 19.95961521 -11.73201666 20.51059414 -13.01171875 22.84765625 C-14.66177025 28.25562851 -15.55231299 33.35914365 -16 39 C-16.33 39 -16.66 39 -17 39 C-17.144375 38.21625 -17.28875 37.4325 -17.4375 36.625 C-17.87798925 34.03578982 -17.87798925 34.03578982 -19 32 C-18.44140625 29.8359375 -18.44140625 29.8359375 -17.5625 27.375 C-17.27503906 26.55773437 -16.98757812 25.74046875 -16.69140625 24.8984375 C-16.34916016 23.95871094 -16.34916016 23.95871094 -16 23 C-17.98 23.66 -19.96 24.32 -22 25 C-19.45996166 22.12940872 -16.57703792 20.49118117 -13.25 18.625 C-5.03586992 14.47446465 -5.03586992 14.47446465 1 8 C-0.32 7.34 -1.64 6.68 -3 6 C-2.42655063 3.13275314 -2.1385485 2.1385485 0 0 Z " fill="#DCE7E2" transform="translate(185,150)"/>
<path d="M0 0 C1 3 1 3 0.22265625 4.76171875 C-0.16019531 5.39722656 -0.54304687 6.03273437 -0.9375 6.6875 C-3.27892815 11.02437208 -3.34799076 14.12812937 -3 19 C0.00259517 19.33218192 0.00259517 19.33218192 1.6875 17.5 C2.120625 17.005 2.55375 16.51 3 16 C2.6852134 19.46265264 2.29733158 21.58585959 0.25 24.4375 C-2 26 -2 26 -4.6875 25.875 C-7 25 -7 25 -8 23 C-8.56580269 16.43668878 -7.30263484 12.61224771 -4 7 C-3.6184375 6.32066406 -3.236875 5.64132813 -2.84375 4.94140625 C-1.91094012 3.28566871 -0.95756723 1.64154382 0 0 Z " fill="#E4EDE9" transform="translate(240,172)"/>
<path d="M0 0 C0.99 0 1.98 0 3 0 C3.22514824 5.4035577 2.69166838 9.83595969 1 15 C0.01 15.33 -0.98 15.66 -2 16 C-1.67 13.69 -1.34 11.38 -1 9 C-2.65 12.63 -4.3 16.26 -6 20 C-6.99 19.67 -7.98 19.34 -9 19 C-7.32379172 11.95698452 -5.01151951 5.40304448 0 0 Z " fill="#E6EEEA" transform="translate(281,113)"/>
<path d="M0 0 C5.46900489 0.48613377 5.46900489 0.48613377 7.9375 2.875 C8.288125 3.57625 8.63875 4.2775 9 5 C8.67 5.99 8.34 6.98 8 8 C5.67684969 8.7013284 3.34210921 9.36485174 1 10 C-1.35959458 11.49486846 -1.35959458 11.49486846 -3 13 C-0.36 12.67 2.28 12.34 5 12 C3.58480285 14.0343459 2.45017877 14.90410393 0.01953125 15.421875 C-1.98176954 15.66273952 -3.9909944 15.83532741 -6 16 C-5.52797514 11.75177626 -3.03344482 9.80010291 0 7 C-0.33 6.01 -0.66 5.02 -1 4 C-0.5625 1.8125 -0.5625 1.8125 0 0 Z " fill="#DBE7E2" transform="translate(174,109)"/>
<path d="M0 0 C0.33 0.66 0.66 1.32 1 2 C0.3409159 3.66967972 -0.32650839 5.33607955 -1 7 C-1 8.32 -1 9.64 -1 11 C-0.01 11.33 0.98 11.66 2 12 C2.33 11.34 2.66 10.68 3 10 C3 10.66 3 11.32 3 12 C3.74765625 11.69964844 4.4953125 11.39929688 5.265625 11.08984375 C6.25046875 10.70957031 7.2353125 10.32929688 8.25 9.9375 C9.22453125 9.55464844 10.1990625 9.17179688 11.203125 8.77734375 C14.04007395 7.98886213 15.29409552 7.97562188 18 9 C18 9.66 18 10.32 18 11 C16.27192682 11.33895656 14.54248026 11.67091525 12.8125 12 C11.36810547 12.2784375 11.36810547 12.2784375 9.89453125 12.5625 C7.2065794 12.96877612 4.71228981 13.07933572 2 13 C1.34 14.32 0.68 15.64 0 17 C-1.32 16.34 -2.64 15.68 -4 15 C-4.50610724 8.92671312 -3.04157942 5.22771463 0 0 Z " fill="#E2EBE7" transform="translate(220,196)"/>
<path d="M0 0 C0.66 0.33 1.32 0.66 2 1 C2.40729228 3.32156597 2.74438677 5.6568787 3 8 C3.99 7.67 4.98 7.34 6 7 C5.67 4.69 5.34 2.38 5 0 C5.66 0.33 6.32 0.66 7 1 C7.4140625 3.06640625 7.4140625 3.06640625 7.625 5.5625 C7.69976562 6.38878906 7.77453125 7.21507812 7.8515625 8.06640625 C7.90054687 8.70449219 7.94953125 9.34257812 8 10 C3.25 11 3.25 11 1 11 C0.34 11.66 -0.32 12.32 -1 13 C-4.53571429 12.46428571 -4.53571429 12.46428571 -6 11 C-6.07179964 9.48071962 -6.08392007 7.95832518 -6.0625 6.4375 C-6.05347656 5.61121094 -6.04445313 4.78492188 -6.03515625 3.93359375 C-6.02355469 3.29550781 -6.01195312 2.65742188 -6 2 C-5.67 2 -5.34 2 -5 2 C-4.34 4.31 -3.68 6.62 -3 9 C-2.34 9 -1.68 9 -1 9 C-0.67 6.03 -0.34 3.06 0 0 Z " fill="#DEE8E4" transform="translate(316,153)"/>
<path d="M0 0 C0.99 0.33 1.98 0.66 3 1 C2.67 2.32 2.34 3.64 2 5 C0.68 5 -0.64 5 -2 5 C-2 5.66 -2 6.32 -2 7 C1.34252724 7.07427838 3.8035914 7.06546953 7 6 C7 6.99 7 7.98 7 9 C2.71 11.31 -1.58 13.62 -6 16 C-5.34 14.35 -4.68 12.7 -4 11 C-4.66 10.34 -5.32 9.68 -6 9 C-5.88679697 5.71711224 -4.71715137 4.69645513 -2.4375 2.25 C-1.633125 1.5075 -0.82875 0.765 0 0 Z " fill="#DEE9E4" transform="translate(411,197)"/>
<path d="M0 0 C0.99 0.33 1.98 0.66 3 1 C2.95875 1.94875 2.9175 2.8975 2.875 3.875 C2.65026182 7.10244856 2.65026182 7.10244856 5 9 C4.625 11.125 4.625 11.125 4 13 C2.68 12.34 1.36 11.68 0 11 C-4.455 14.96 -4.455 14.96 -9 19 C-9.66 18.67 -10.32 18.34 -11 18 C-10.36191406 17.44570312 -9.72382813 16.89140625 -9.06640625 16.3203125 C-8.24011719 15.59585938 -7.41382813 14.87140625 -6.5625 14.125 C-5.32693359 13.04605469 -5.32693359 13.04605469 -4.06640625 11.9453125 C-1.94017845 10.16761255 -1.94017845 10.16761255 -1 8 C-1.66 8 -2.32 8 -3 8 C-3.36923077 3.44615385 -3.36923077 3.44615385 -1.5 1.1875 C-1.005 0.795625 -0.51 0.40375 0 0 Z " fill="#DCE8E3" transform="translate(337,133)"/>
<path d="M0 0 C1.32 0.66 2.64 1.32 4 2 C3.67 2.99 3.34 3.98 3 5 C1.68 4.67 0.36 4.34 -1 4 C-1.12117187 4.78246094 -1.24234375 5.56492188 -1.3671875 6.37109375 C-1.61855469 7.88896484 -1.61855469 7.88896484 -1.875 9.4375 C-2.03742188 10.44683594 -2.19984375 11.45617187 -2.3671875 12.49609375 C-2.57601562 13.32238281 -2.78484375 14.14867187 -3 15 C-3.99 15.495 -3.99 15.495 -5 16 C-5.5878125 14.329375 -5.5878125 14.329375 -6.1875 12.625 C-7.42482967 9.68039334 -7.73606497 9.14117455 -10.6875 7.5625 C-11.8321875 7.2840625 -11.8321875 7.2840625 -13 7 C-12.67 5.68 -12.34 4.36 -12 3 C-9.20171644 3.38597015 -8.1794116 3.80136573 -6.25 5.9375 C-5 8 -5 8 -5 10 C-4.34 10 -3.68 10 -3 10 C-3.061875 9.0925 -3.12375 8.185 -3.1875 7.25 C-2.98327924 3.71017358 -2.35448165 2.55068845 0 0 Z " fill="#F0F5F3" transform="translate(195,167)"/>
<path d="M0 0 C3.63 0 7.26 0 11 0 C9.75916114 4.96335543 8.10227402 6.08107426 4 9 C1.125 9.8125 1.125 9.8125 -1 10 C0.63412443 8.29159719 1.86906094 7.06546953 4 6 C1.03 5.505 1.03 5.505 -2 5 C-1.34 3.35 -0.68 1.7 0 0 Z " fill="#E7EFEB" transform="translate(169,156)"/>
<path d="M0 0 C0.99 0.33 1.98 0.66 3 1 C2.67 2.32 2.34 3.64 2 5 C1.67 4.34 1.34 3.68 1 3 C0.01 3.66 -0.98 4.32 -2 5 C-2 5.66 -2 6.32 -2 7 C1.34252724 7.07427838 3.8035914 7.06546953 7 6 C5.56284053 9.64757321 3.92288356 10.97325575 0.5 12.8125 C-0.2940625 13.25207031 -1.088125 13.69164062 -1.90625 14.14453125 C-2.5971875 14.42683594 -3.288125 14.70914063 -4 15 C-4.66 14.67 -5.32 14.34 -6 14 C-5.01 12.68 -4.02 11.36 -3 10 C-3.99 9.67 -4.98 9.34 -6 9 C-5.52797514 4.75177626 -3.03344482 2.80010291 0 0 Z " fill="#EAF1EE" transform="translate(443,191)"/>
<path d="M0 0 C3.63 0 7.26 0 11 0 C9.94056181 4.23775276 9.30143131 5.34051367 6 8 C3.25 8.75 3.25 8.75 1 9 C1.99 8.01 2.98 7.02 4 6 C1.03 5.505 1.03 5.505 -2 5 C-1.34 3.35 -0.68 1.7 0 0 Z " fill="#EEF3F1" transform="translate(341,108)"/>
<path d="M0 0 C3.79152334 -0.0867982 7.58279296 -0.14032207 11.375 -0.1875 C12.99535156 -0.22520508 12.99535156 -0.22520508 14.6484375 -0.26367188 C15.6796875 -0.27333984 16.7109375 -0.28300781 17.7734375 -0.29296875 C18.72653809 -0.3086792 19.67963867 -0.32438965 20.66162109 -0.34057617 C21.81911865 -0.17199097 21.81911865 -0.17199097 23 0 C23.66 0.99 24.32 1.98 25 3 C16.75 3 8.5 3 0 3 C0 2.01 0 1.02 0 0 Z " fill="#055734" transform="translate(400,309)"/>
<path d="M0 0 C4.26272329 1.52240117 5.98031034 4.03275246 8 8 C8.93393199 13.73701081 8.07444559 18.00402592 5 23 C3.74350181 20.48700363 4.18222863 19.47568409 4.6875 16.75 C5.19069982 12.89834705 5.07038878 12.1313924 3.125 8.5 C1.60899724 6.70712022 1.60899724 6.70712022 0 5 C-0.04063832 3.33382885 -0.042721 1.66611905 0 0 Z " fill="#D5E3DD" transform="translate(197,109)"/>
<path d="M0 0 C1.32 0.33 2.64 0.66 4 1 C3.505 2.03125 3.01 3.0625 2.5 4.125 C1.02526098 7.52451578 0.72708894 10.27021549 1 14 C1.99 14 2.98 14 4 14 C3.33989524 16.84550012 2.48275034 19.52325999 1.4375 22.25 C1.16808594 22.95640625 0.89867187 23.6628125 0.62109375 24.390625 C0.41613281 24.92171875 0.21117187 25.4528125 0 26 C-0.66 25.34 -1.32 24.68 -2 24 C-1.66666667 22.33333333 -1.33333333 20.66666667 -1 19 C-1.66 18.34 -2.32 17.68 -3 17 C-4.06935224 10.88941575 -0.86054702 6.16941711 2 1 C1.34 0.67 0.68 0.34 0 0 Z " fill="#CBDCD5" transform="translate(268,167)"/>
<path d="M0 0 C2.625 0.375 2.625 0.375 5 1 C4.67 3.31 4.34 5.62 4 8 C4.66 8 5.32 8 6 8 C5.67 9.32 5.34 10.64 5 12 C3.68 11.34 2.36 10.68 1 10 C1 9.34 1 8.68 1 8 C-0.32 7.34 -1.64 6.68 -3 6 C-2.42655063 3.13275314 -2.1385485 2.1385485 0 0 Z " fill="#E8EFEC" transform="translate(185,150)"/>
<path d="M0 0 C3.80489745 1.49478114 5.66190835 3.69442214 8 7 C8.9807664 9.94229921 9.16488128 11.9908784 9.1875 15.0625 C9.20167969 15.94035156 9.21585937 16.81820312 9.23046875 17.72265625 C9 20 9 20 7 22 C6.97421875 21.34773438 6.9484375 20.69546875 6.921875 20.0234375 C6.5396903 14.13431877 5.8397944 10.53793884 2 6 C1.34 5.67 0.68 5.34 0 5 C0 3.35 0 1.7 0 0 Z " fill="#D6E3DD" transform="translate(458,136)"/>
<path d="M0 0 C1.07862981 3.63566133 0.67667769 4.64664461 -1 8 C-1.41702122 11.0842309 -1.41702122 11.0842309 -1 14 C-0.01 14.66 0.98 15.32 2 16 C2.33 15.01 2.66 14.02 3 13 C3.33 13.99 3.66 14.98 4 16 C2.5625 18.1875 2.5625 18.1875 1 20 C-0.65 19.67 -2.3 19.34 -4 19 C-4.55253221 11.64825194 -3.51064108 6.488417 0 0 Z " fill="#E3ECE8" transform="translate(422,130)"/>
<path d="M0 0 C2.77158023 0.61590672 4.51992542 1.34507398 6.22265625 3.66796875 C8.65839182 8.18150026 9.61218374 11.79643818 9 17 C8.34 17.99 7.68 18.98 7 20 C6.96132813 19.12988281 6.96132813 19.12988281 6.921875 18.2421875 C6.51499297 12.63831229 5.59135557 9.35315826 2 5 C1.34 4.67 0.68 4.34 0 4 C0 2.68 0 1.36 0 0 Z " fill="#D7E4DE" transform="translate(287,109)"/>
<path d="M0 0 C2.97 0 5.94 0 9 0 C8.10633592 3.65589852 7.55523341 5.55866062 4.5625 7.9375 C2 9 2 9 -1 8 C0.65 7.01 2.3 6.02 4 5 C2.35 4.67 0.7 4.34 -1 4 C-0.67 2.68 -0.34 1.36 0 0 Z " fill="#D4E2DC" transform="translate(457,108)"/>
<path d="M0 0 C2.97 0 5.94 0 9 0 C7.95800204 4.16799185 7.31768581 5.44064238 4 8 C1.75 7.75 1.75 7.75 0 7 C1.32 6.34 2.64 5.68 4 5 C2.35 4.67 0.7 4.34 -1 4 C-0.67 2.68 -0.34 1.36 0 0 Z " fill="#DCE7E3" transform="translate(369,108)"/>
<path d="M0 0 C1.125 3.75 1.125 3.75 0 6 C-0.039992 7.99960012 -0.04346799 10.00047242 0 12 C1.32 11.67 2.64 11.34 4 11 C3.67 12.65 3.34 14.3 3 16 C1.35 16.33 -0.3 16.66 -2 17 C-3.80319789 13.39360421 -3.47193943 9.57221682 -2.328125 5.76171875 C-1.59815505 3.82316649 -0.80383467 1.90910734 0 0 Z " fill="#D4E2DC" transform="translate(376,135)"/>
<path d="M0 0 C0.33 0.66 0.66 1.32 1 2 C0.67 2.763125 0.34 3.52625 0 4.3125 C-1.14309247 7.38456102 -0.88573949 8.89991179 0 12 C0.99 11.34 1.98 10.68 3 10 C2.75 12.375 2.75 12.375 2 15 C-0.0625 16.3125 -0.0625 16.3125 -2 17 C-4 15 -4 15 -4.375 11.875 C-3.92205289 7.19454654 -2.33503416 4.01333996 0 0 Z " fill="#D2E0DA" transform="translate(399,130)"/>
<path d="M0 0 C2.64 0 5.28 0 8 0 C7.66275164 3.11954738 7.3790035 4.6209965 5.125 6.875 C4.42375 7.24625 3.7225 7.6175 3 8 C2.01 7.67 1.02 7.34 0 7 C0.99 6.34 1.98 5.68 3 5 C1.35 4.67 -0.3 4.34 -2 4 C-1.34 2.68 -0.68 1.36 0 0 Z " fill="#E6EEEA" transform="translate(392,108)"/>
<path d="M0 0 C0.33 0.99 0.66 1.98 1 3 C0.67 3.66 0.34 4.32 0 5 C-0.039992 6.99960012 -0.04346799 9.00047242 0 11 C0.66 11.33 1.32 11.66 2 12 C2.33 11.01 2.66 10.02 3 9 C3.33 9.99 3.66 10.98 4 12 C2.75 14.1875 2.75 14.1875 1 16 C0.01 16 -0.98 16 -2 16 C-3.5955739 12.80885219 -3.38584417 9.47259755 -3 6 C-1.5 2.5 -1.5 2.5 0 0 Z " fill="#D6E3DD" transform="translate(401,162)"/>
<path d="M0 0 C2 1 2 1 3 3 C3.33 2.01 3.66 1.02 4 0 C6 3 6 3 5.625 5.1875 C5.41875 5.785625 5.2125 6.38375 5 7 C2.36 7.33 -0.28 7.66 -3 8 C-3.33 5.69 -3.66 3.38 -4 1 C-3.01 1.495 -3.01 1.495 -2 2 C-2 3.32 -2 4.64 -2 6 C-1.34 6 -0.68 6 0 6 C0 4.02 0 2.04 0 0 Z " fill="#ADC8BC" transform="translate(373,124)"/>
<path d="M0 0 C5.50588235 0.48941176 5.50588235 0.48941176 7.875 2.9375 C9 5 9 5 9 7 C5.7 6.67 2.4 6.34 -1 6 C-0.67 4.02 -0.34 2.04 0 0 Z " fill="#96B8A9" transform="translate(174,109)"/>
<path d="M0 0 C0 3.38023517 -0.87455622 5.83468937 -2 9 C-0.35 8.67 1.3 8.34 3 8 C1.515 10.475 1.515 10.475 0 13 C-1.65 12.67 -3.3 12.34 -5 12 C-4.52389341 7.00088076 -2.96837781 4.02167317 0 0 Z " fill="#D1E0D9" transform="translate(304,197)"/>
<path d="M0 0 C-0.62197123 6.33881314 -1.28542887 12.67094142 -2 19 C-2.33 19 -2.66 19 -3 19 C-3.144375 18.21625 -3.28875 17.4325 -3.4375 16.625 C-3.87798925 14.03578982 -3.87798925 14.03578982 -5 12 C-4.44140625 9.8359375 -4.44140625 9.8359375 -3.5625 7.375 C-3.27503906 6.55773437 -2.98757812 5.74046875 -2.69140625 4.8984375 C-2.34916016 3.95871094 -2.34916016 3.95871094 -2 3 C-3.98 3.66 -5.96 4.32 -8 5 C-5.93424534 2.72766987 -3.29882018 0 0 0 Z " fill="#C3D6CE" transform="translate(171,170)"/>
<path d="M0 0 C1.875 0.3125 1.875 0.3125 4 1 C6 4 6 4 6 8 C3.36 8.66 0.72 9.32 -2 10 C-1.67 8.35 -1.34 6.7 -1 5 C-0.01 5 0.98 5 2 5 C2 4.34 2 3.68 2 3 C1.34 3 0.68 3 0 3 C0 2.01 0 1.02 0 0 Z " fill="#BCD2C9" transform="translate(268,108)"/>
<path d="M0 0 C3.49372257 1.5661515 6.23848767 3.06160499 7.6875 6.75 C8.11719431 9.84379905 8.05996827 12.88165003 8 16 C7.67 16 7.34 16 7 16 C6.6596875 14.4221875 6.6596875 14.4221875 6.3125 12.8125 C5.20733439 8.81131649 2.95511699 6.87735075 0 4 C0 2.68 0 1.36 0 0 Z " fill="#EDF3F0" transform="translate(420,161)"/>
<path d="M0 0 C-0.33 1.32 -0.66 2.64 -1 4 C-8.42857143 6.42857143 -8.42857143 6.42857143 -12 5 C-7.90746174 1.10234452 -5.90669543 -0.70317803 0 0 Z " fill="#13613F" transform="translate(182,117)"/>
<path d="M0 0 C0 0.99 0 1.98 0 3 C-4.50698129 7.50698129 -9.99630049 10.82998813 -16 13 C-16.99 12.67 -17.98 12.34 -19 12 C-17.87980469 11.38511719 -16.75960938 10.77023438 -15.60546875 10.13671875 C-14.1326648 9.32057898 -12.66001666 8.50415799 -11.1875 7.6875 C-10.44951172 7.28337891 -9.71152344 6.87925781 -8.95117188 6.46289062 C-8.23896484 6.06650391 -7.52675781 5.67011719 -6.79296875 5.26171875 C-6.1383667 4.90037842 -5.48376465 4.53903809 -4.80932617 4.16674805 C-2.93647816 2.9590378 -1.51343075 1.62811563 0 0 Z " fill="#CFDED8" transform="translate(351,200)"/>
<path d="M0 0 C0 0.33 0 0.66 0 1 C-0.90492188 1.09087891 -0.90492188 1.09087891 -1.828125 1.18359375 C-3.02695312 1.30927734 -3.02695312 1.30927734 -4.25 1.4375 C-5.03890625 1.51871094 -5.8278125 1.59992188 -6.640625 1.68359375 C-8.9987921 1.94871809 -8.9987921 1.94871809 -11.234375 2.59765625 C-11.81703125 2.73042969 -12.3996875 2.86320312 -13 3 C-13.33 2.67 -13.66 2.34 -14 2 C-15.84891946 1.76636119 -17.70488031 1.58696365 -19.5625 1.4375 C-20.57441406 1.35371094 -21.58632813 1.26992188 -22.62890625 1.18359375 C-23.80259766 1.09271484 -23.80259766 1.09271484 -25 1 C-25 0.67 -25 0.34 -25 0 C-16.53438902 -1.12298921 -8.48799189 -0.80542989 0 0 Z " fill="#D9E6E1" transform="translate(425,312)"/>
<path d="M0 0 C0 0.66 0 1.32 0 2 C-6.06815522 3.22899346 -11.79895188 4.27560214 -18 4 C-17.34 3.67 -16.68 3.34 -16 3 C-15.67 2.34 -15.34 1.68 -15 1 C-15 1.66 -15 2.32 -15 3 C-13.87851563 2.54947266 -13.87851563 2.54947266 -12.734375 2.08984375 C-11.74953125 1.70957031 -10.7646875 1.32929688 -9.75 0.9375 C-8.77546875 0.55464844 -7.8009375 0.17179688 -6.796875 -0.22265625 C-3.95992605 -1.01113787 -2.70590448 -1.02437812 0 0 Z " fill="#CBDCD5" transform="translate(238,205)"/>
<path d="M0 0 C0.33 0.99 0.66 1.98 1 3 C0.67 3.66 0.34 4.32 0 5 C-0.039992 6.99960012 -0.04346799 9.00047242 0 11 C0.99 10.67 1.98 10.34 3 10 C2.34 11.65 1.68 13.3 1 15 C-0.32 14.67 -1.64 14.34 -3 14 C-3.34615998 8.34605369 -2.43425238 4.96993194 0 0 Z " fill="#CDDED7" transform="translate(359,156)"/>
<path d="M0 0 C1.32 0.33 2.64 0.66 4 1 C4.33 2.65 4.66 4.3 5 6 C2.69 5.67 0.38 5.34 -2 5 C-1.34 3.35 -0.68 1.7 0 0 Z " fill="#CFDED8" transform="translate(354,194)"/>
<path d="M0 0 C1.32 0.66 2.64 1.32 4 2 C3.67 2.99 3.34 3.98 3 5 C1.68 4.67 0.36 4.34 -1 4 C-1.33 6.31 -1.66 8.62 -2 11 C-2.99 11 -3.98 11 -5 11 C-4.34 10.67 -3.68 10.34 -3 10 C-3.0928125 8.63875 -3.0928125 8.63875 -3.1875 7.25 C-2.98327924 3.71017358 -2.35448165 2.55068845 0 0 Z " fill="#C6D9D1" transform="translate(195,167)"/>
<path d="M0 0 C0.33 0 0.66 0 1 0 C1.66 2.31 2.32 4.62 3 7 C4.32 7 5.64 7 7 7 C6.34 8.32 5.68 9.64 5 11 C1.125 10.125 1.125 10.125 0 9 C-0.07179964 7.48071962 -0.08392007 5.95832518 -0.0625 4.4375 C-0.05347656 3.61121094 -0.04445313 2.78492188 -0.03515625 1.93359375 C-0.02355469 1.29550781 -0.01195312 0.65742188 0 0 Z " fill="#CEDED7" transform="translate(310,155)"/>
<path d="M0 0 C2.31 0.33 4.62 0.66 7 1 C7 1.99 7 2.98 7 4 C4.625 4.625 4.625 4.625 2 5 C1.34 4.34 0.68 3.68 0 3 C0 2.01 0 1.02 0 0 Z " fill="#0F5E3C" transform="translate(337,157)"/>
<path d="M0 0 C1.67542976 0.28604898 3.34385343 0.61781233 5 1 C4.67 2.65 4.34 4.3 4 6 C2.68 5.67 1.36 5.34 0 5 C-0.5625 3.0625 -0.5625 3.0625 -1 1 C-0.67 0.67 -0.34 0.34 0 0 Z " fill="#A1C0B2" transform="translate(185,150)"/>
<path d="M0 0 C0.99 0.33 1.98 0.66 3 1 C2.67 2.32 2.34 3.64 2 5 C0.68 5 -0.64 5 -2 5 C-2.33 5.66 -2.66 6.32 -3 7 C-3.99 6.67 -4.98 6.34 -6 6 C-4.02 4.02 -2.04 2.04 0 0 Z " fill="#CEDED7" transform="translate(411,197)"/>
<path d="M0 0 C0.99 0.33 1.98 0.66 3 1 C2.67 2.32 2.34 3.64 2 5 C1.67 4.34 1.34 3.68 1 3 C0.071875 3.99 0.071875 3.99 -0.875 5 C-3 7 -3 7 -5 7 C-5.33 7.66 -5.66 8.32 -6 9 C-5.52797514 4.75177626 -3.03344482 2.80010291 0 0 Z " fill="#D9E5E0" transform="translate(443,191)"/>
<path d="M0 0 C0.99 0.33 1.98 0.66 3 1 C3 2.65 3 4.3 3 6 C1.35 5.67 -0.3 5.34 -2 5 C-1.125 1.125 -1.125 1.125 0 0 Z " fill="#92B6A6" transform="translate(337,133)"/>
<path d="M0 0 C1.09898702 3.29696105 0.87124444 4.40494903 0.0625 7.6875 C-0.22947266 8.89986328 -0.22947266 8.89986328 -0.52734375 10.13671875 C-0.68332031 10.75160156 -0.83929688 11.36648437 -1 12 C-1.99 11.34 -2.98 10.68 -4 10 C-3.52449439 8.51965236 -3.04448784 7.04074979 -2.5625 5.5625 C-2.29566406 4.73878906 -2.02882812 3.91507812 -1.75390625 3.06640625 C-1 1 -1 1 0 0 Z " fill="#36785C" transform="translate(189,122)"/>
<path d="M0 0 C1.27351308 2.54702616 0.80191925 3.4282945 0.0625 6.125 C-0.13214844 6.84945312 -0.32679688 7.57390625 -0.52734375 8.3203125 C-0.68332031 8.87460938 -0.83929688 9.42890625 -1 10 C-1.99 10 -2.98 10 -4 10 C-3.43454163 6.04179141 -2.19097652 3.3340947 0 0 Z " fill="#256D4E" transform="translate(280,121)"/>
<path d="M0 0 C2.97 0.495 2.97 0.495 6 1 C6 1.66 6 2.32 6 3 C3.69 3 1.38 3 -1 3 C-0.67 2.01 -0.34 1.02 0 0 Z " fill="#0D5D3B" transform="translate(209,162)"/>
</svg>
