<?xml version="1.0" encoding="UTF-8"?>
<svg version="1.1" xmlns="http://www.w3.org/2000/svg" width="640" height="427">
<path d="M0 0 C211.2 0 422.4 0 640 0 C640 140.91 640 281.82 640 427 C428.8 427 217.6 427 0 427 C0 286.09 0 145.18 0 0 Z " fill="#01411C" transform="translate(0,0)"/>
<path d="M0 0 C52.8 0 105.6 0 160 0 C160 140.91 160 281.82 160 427 C107.2 427 54.4 427 0 427 C0 286.09 0 145.18 0 0 Z " fill="#FFFFFF" transform="translate(0,0)"/>
<path d="M0 0 C-0.94359375 0.8353125 -0.94359375 0.8353125 -1.90625 1.6875 C-4.6204992 4.10743302 -7.31175851 6.5512283 -10 9 C-10.6909375 9.61101562 -11.381875 10.22203125 -12.09375 10.8515625 C-32.23792837 29.59225303 -42.55717863 59.41973801 -44.35546875 86.23828125 C-45.06748327 119.43172 -32.85925346 149.31014011 -10.43359375 173.5625 C12.19713711 196.22955627 40.80765997 207.17577146 72.4375 207.25 C104.82561841 207.23952383 131.40477346 196.11092812 155 174 C155.33 174.66 155.66 175.32 156 176 C154.9554277 178.21742541 153.86369371 180.268294 152.625 182.375 C152.25995361 183.00132324 151.89490723 183.62764648 151.51879883 184.27294922 C133.1771629 215.11935927 104.98121465 235.37195798 70.734375 245.17578125 C60.00003368 247.54497164 49.60740295 248.33968417 38.625 248.3125 C37.33078125 248.32861328 36.0365625 248.34472656 34.703125 248.36132812 C6.14030107 248.37558103 -21.39844101 236.3224491 -43 218 C-44.22009766 216.98292969 -44.22009766 216.98292969 -45.46484375 215.9453125 C-70.94847916 193.96416727 -85.36508741 162.23102836 -88 129 C-90.15251449 95.04949363 -79.81492182 63.23012166 -57.7109375 37.31640625 C-55.51420385 34.83658836 -53.27170535 32.41112409 -51 30 C-50.38898438 29.32453125 -49.77796875 28.6490625 -49.1484375 27.953125 C-40.52462491 18.77885629 -12.89148025 -4.29716008 0 0 Z " fill="#FCFDFD" transform="translate(360,93)"/>
<path d="M0 0 C7.1399463 5.74300029 13.90213696 12.35320543 19 20 C26.08378075 19.35818094 32.25860842 15.95387964 38.65234375 13.0625 C39.56628906 12.65773437 40.48023438 12.25296875 41.421875 11.8359375 C42.25299805 11.46001465 43.08412109 11.0840918 43.94042969 10.69677734 C44.62008789 10.46684082 45.29974609 10.2369043 46 10 C46.99 10.495 46.99 10.495 48 11 C47.5654248 11.70608398 47.13084961 12.41216797 46.68310547 13.13964844 C44.73032112 16.33320433 42.80252004 19.54113807 40.875 22.75 C40.19050781 23.86117187 39.50601563 24.97234375 38.80078125 26.1171875 C38.16269531 27.18710938 37.52460938 28.25703125 36.8671875 29.359375 C36.27019043 30.34389648 35.67319336 31.32841797 35.05810547 32.34277344 C33.72576049 34.8904196 33.72576049 34.8904196 34.63964844 37.14990234 C35.97713636 38.96890513 37.3309408 40.6170951 38.8984375 42.2421875 C39.46046875 42.83386719 40.0225 43.42554688 40.6015625 44.03515625 C41.47941406 44.94587891 41.47941406 44.94587891 42.375 45.875 C46.38825491 50.0405436 49.9436203 54.07666915 53 59 C46.52120349 58.30453597 40.39835463 56.97603297 34.09179688 55.37304688 C33.37701172 55.19708984 32.66222656 55.02113281 31.92578125 54.83984375 C31.29067627 54.67863037 30.65557129 54.51741699 30.0012207 54.35131836 C27.4582142 53.9048884 25.57618416 53.59174395 23 54 C20.92679853 56.32655615 20.92679853 56.32655615 19.265625 59.46875 C18.60949219 60.59667969 17.95335937 61.72460938 17.27734375 62.88671875 C16.60080837 64.09072239 15.92503646 65.29515533 15.25 66.5 C13.90714759 68.84731357 12.55490807 71.18905162 11.203125 73.53125 C10.61176758 74.57861328 10.02041016 75.62597656 9.41113281 76.70507812 C8.94545898 77.46240234 8.47978516 78.21972656 8 79 C7.67 79 7.34 79 7 79 C6.65846908 75.70913156 6.32833354 72.41720923 6 69.125 C5.90460938 68.2071875 5.80921875 67.289375 5.7109375 66.34375 C5.10589688 60.20690947 4.87934107 54.16533625 5 48 C3.74316406 47.88785156 2.48632812 47.77570313 1.19140625 47.66015625 C-4.34611039 47.04487662 -9.66233793 45.77908515 -15.0625 44.4375 C-16.50399414 44.08655273 -16.50399414 44.08655273 -17.97460938 43.72851562 C-20.31767482 43.15732057 -22.65936918 42.58107577 -25 42 C-22.72040476 39.72040476 -20.79585642 38.8995024 -17.84375 37.6171875 C-16.82152344 37.17246094 -15.79929687 36.72773438 -14.74609375 36.26953125 C-13.67488281 35.80933594 -12.60367187 35.34914062 -11.5 34.875 C-10.42878906 34.40707031 -9.35757812 33.93914062 -8.25390625 33.45703125 C-0.26141126 30 -0.26141126 30 2 30 C1.93941406 29.410979 1.87882812 28.82195801 1.81640625 28.21508789 C1.5396151 25.49801017 1.26977324 22.78028314 1 20.0625 C0.90460938 19.13630859 0.80921875 18.21011719 0.7109375 17.25585938 C0.14258953 11.47088893 -0.09538785 5.81269724 0 0 Z " fill="#F9FBFA" transform="translate(447,119)"/>
</svg>
