<svg width="238" height="38" viewBox="0 0 238 38" fill="none" xmlns="http://www.w3.org/2000/svg">
<path d="M54.9106 11.4497V15.8297H68.7406L73.5206 20.6097V26.9697L68.7406 31.7497H49.1406V25.9797H67.7506V21.5997H53.9206L49.1406 16.8197V10.4597L53.9206 5.67969H73.5206V11.4497H54.9106Z" fill="white"/>
<path d="M102.28 5.67969V31.7497H96.5104V21.5997H83.6704V31.7497H80.9904L77.9004 28.6597V5.67969H83.6704V15.8297H96.5104V5.67969H102.28Z" fill="white"/>
<path d="M129.902 15.8301L128.462 21.6001H114.262L115.702 15.8301H129.902Z" fill="white"/>
<path d="M112.43 11.4497V25.9797H131.04V31.7497H111.45L106.66 26.9697V10.4597L111.45 5.67969H131.04V11.4497H112.43Z" fill="white"/>
<path d="M159.802 5.67969V31.7497H156.572L141.192 16.3697V31.7497H138.522L135.422 28.6597V5.67969H138.662L154.042 21.0597V5.67969H159.802Z" fill="white"/>
<path d="M169.951 5.67969V31.7497H167.281L164.191 28.6597V5.67969H169.951Z" fill="white"/>
<path d="M198.72 10.4597V31.7497H192.95V24.9797H184.38L182.94 19.2097H192.95V11.4497H180.11V31.7497H174.34V10.4597L179.12 5.67969H193.93L198.72 10.4597Z" fill="white"/>
<path d="M227.482 5.67969V31.7497H224.242L208.872 16.3697V31.7497H206.192L203.102 28.6597V5.67969H206.332L221.712 21.0597V5.67969H227.482Z" fill="white"/>
<path d="M237.629 5.67969V31.7497H234.949L231.859 28.6597V5.67969H237.629Z" fill="white"/>
<path d="M22.9797 14.4404H14.4297V22.9904H22.9797V14.4404Z" fill="white"/>
<path d="M29.37 0L34.31 5.75L37.41 9.36L9.35001 9.43001V18.86H0V4.78001L4.77002 0H29.37Z" fill="white"/>
<path d="M8.03 37.4196L0 28.0596L28.05 27.9896V18.5596H37.41V32.6396L32.63 37.4196H8.03Z" fill="white"/>
</svg>
