<svg width="24" height="25" viewBox="0 0 24 25" fill="none" xmlns="http://www.w3.org/2000/svg">
<path d="M10.34 16.2599C9.652 16.1999 8.954 16.1699 8.25 16.1699H7.5C6.30653 16.1699 5.16193 15.6958 4.31802 14.8519C3.47411 14.008 3 12.8634 3 11.6699C3 10.4764 3.47411 9.33186 4.31802 8.48794C5.16193 7.64403 6.30653 7.16992 7.5 7.16992H8.25C8.954 7.16992 9.652 7.13992 10.34 7.07992M10.34 16.2599C10.593 17.2219 10.924 18.1519 11.325 19.0429C11.572 19.5929 11.385 20.2529 10.862 20.5539L10.205 20.9339C9.654 21.2519 8.945 21.0509 8.678 20.4729C8.04429 19.102 7.56146 17.6662 7.238 16.1909M10.34 16.2599C9.94698 14.7616 9.74868 13.2189 9.75 11.6699C9.75 10.0839 9.955 8.54592 10.34 7.07992M10.34 16.2599C13.4215 16.524 16.4222 17.385 19.175 18.7949M10.34 7.07992C13.4215 6.81584 16.4223 5.95485 19.175 4.54492M19.175 18.7949C19.057 19.1749 18.93 19.5489 18.795 19.9199M19.175 18.7949C19.719 17.0415 20.0592 15.2312 20.189 13.3999M19.175 4.54492C19.0577 4.16681 18.931 3.79169 18.795 3.41992M19.175 4.54492C19.719 6.29836 20.0592 8.10862 20.189 9.93992M20.189 9.93992C20.684 10.3529 21 10.9749 21 11.6699C21 12.3649 20.684 12.9869 20.189 13.3999M20.189 9.93992C20.2711 11.0918 20.2711 12.248 20.189 13.3999" stroke="#898E99" stroke-width="1.5" stroke-linecap="round" stroke-linejoin="round"/>
</svg>
