<svg width="33" height="33" viewBox="0 0 33 33" fill="none" xmlns="http://www.w3.org/2000/svg">
<g clip-path="url(#clip0_16970_33635)">
<path d="M8.81522 13.1634H9.08179C10.1081 13.1634 10.9478 14.0031 10.9478 15.0294V24.3595C10.9478 25.3858 10.1081 26.2255 9.08179 26.2255H8.81522C7.78892 26.2255 6.94922 25.3858 6.94922 24.3595V15.0294C6.94922 14.0031 7.78892 13.1634 8.81522 13.1634V13.1634ZM16.2792 7.56543C17.3055 7.56543 18.1452 8.40513 18.1452 9.43143V24.3595C18.1452 25.3858 17.3055 26.2255 16.2792 26.2255C15.2529 26.2255 14.4132 25.3858 14.4132 24.3595V9.43143C14.4132 8.40513 15.2529 7.56543 16.2792 7.56543ZM23.7433 18.2283C24.7696 18.2283 25.6093 19.068 25.6093 20.0943V24.3595C25.6093 25.3858 24.7696 26.2255 23.7433 26.2255C22.717 26.2255 21.8773 25.3858 21.8773 24.3595V20.0943C21.8773 19.068 22.717 18.2283 23.7433 18.2283V18.2283Z" fill="white"/>
</g>
<defs>
<clipPath id="clip0_16970_33635">
<rect width="31.9886" height="31.9886" fill="white" transform="translate(0.285156 0.900391)"/>
</clipPath>
</defs>
</svg>
