<svg width="17" height="14" viewBox="0 0 17 14" fill="none" xmlns="http://www.w3.org/2000/svg">
<path d="M16.675 2.16073L14.6278 0.107706C14.5591 0.0387523 14.4657 0 14.3683 0C14.2709 0 14.1775 0.0387523 14.1087 0.107706L5.46255 8.75973C5.39378 8.82869 5.30039 8.86744 5.20299 8.86744C5.1056 8.86744 5.01221 8.82869 4.94343 8.75973L2.89628 6.70671C2.8275 6.63776 2.73411 6.599 2.63671 6.599C2.53932 6.599 2.44593 6.63776 2.37715 6.70671L0.329995 8.75973C0.186877 8.9029 0.186877 9.13496 0.329995 9.27812L4.94343 13.8923C5.01221 13.9612 5.1056 14 5.20299 14C5.30039 14 5.39378 13.9612 5.46255 13.8923L16.675 2.67399C16.8147 2.53143 16.8147 2.30328 16.675 2.16073Z" fill="#FB991C"/>
</svg>
