<svg width="27" height="26" viewBox="0 0 27 26" fill="none" xmlns="http://www.w3.org/2000/svg">
<path d="M8.79516 3.55843C8.60921 3.64889 7.89057 4.3424 5.80501 6.43299C4.29235 7.94566 3.02091 9.25228 2.9807 9.33771C2.71435 9.88046 2.9003 10.5338 3.40787 10.8202L3.62396 10.9459H11.9913C21.2332 10.9459 20.4693 10.971 20.806 10.6393C21.0372 10.4081 21.1075 10.2222 21.1125 9.86538C21.1125 9.43822 20.9417 9.12664 20.5949 8.92562L20.3587 8.78491L13.499 8.76983L6.64426 8.75978L8.4082 6.98579C10.3078 5.08617 10.3832 4.99571 10.3832 4.51327C10.3832 3.69412 9.53892 3.18655 8.79516 3.55843Z" fill="#FB991C"/>
<path d="M6.76478 14.1926C6.05619 14.479 5.8401 15.4741 6.37782 15.9816C6.73463 16.3234 6.14163 16.2982 13.7351 16.2982H20.6049L18.7656 18.1426C16.7504 20.1678 16.7906 20.1226 16.8257 20.6955C16.8408 20.9418 16.876 21.0573 16.9866 21.2182C17.268 21.6252 17.8962 21.7911 18.3485 21.58C18.4841 21.5147 19.4641 20.5649 21.3939 18.6301C24.188 15.8258 24.2433 15.7655 24.3036 15.5092C24.4142 15.0318 24.2483 14.5896 23.8614 14.3132L23.6403 14.1624L15.2679 14.1524C9.82026 14.1473 6.84519 14.1624 6.76478 14.1926Z" fill="#FB991C"/>
</svg>
