<svg width="24" height="25" viewBox="0 0 24 25" fill="none" xmlns="http://www.w3.org/2000/svg">
<path d="M12 6.41992V18.4199M9 15.6019L9.879 16.2609C11.05 17.1399 12.949 17.1399 14.121 16.2609C15.293 15.3819 15.293 13.9579 14.121 13.0789C13.536 12.6389 12.768 12.4199 12 12.4199C11.275 12.4199 10.55 12.1999 9.997 11.7609C8.891 10.8819 8.891 9.45792 9.997 8.57892C11.103 7.69992 12.897 7.69992 14.003 8.57892L14.418 8.90892M21 12.4199C21 13.6018 20.7672 14.7721 20.3149 15.8641C19.8626 16.956 19.1997 17.9482 18.364 18.7839C17.5282 19.6196 16.5361 20.2825 15.4442 20.7348C14.3522 21.1871 13.1819 21.4199 12 21.4199C10.8181 21.4199 9.64778 21.1871 8.55585 20.7348C7.46392 20.2825 6.47177 19.6196 5.63604 18.7839C4.80031 17.9482 4.13738 16.956 3.68508 15.8641C3.23279 14.7721 3 13.6018 3 12.4199C3 10.033 3.94821 7.74379 5.63604 6.05596C7.32387 4.36813 9.61305 3.41992 12 3.41992C14.3869 3.41992 16.6761 4.36813 18.364 6.05596C20.0518 7.74379 21 10.033 21 12.4199Z" stroke="#898E99" stroke-width="1.5" stroke-linecap="round" stroke-linejoin="round"/>
</svg>
