<svg width="24" height="24" viewBox="0 0 24 24" fill="none" xmlns="http://www.w3.org/2000/svg">
<path d="M12 21C10.7573 21 9.58867 20.7633 8.494 20.29C7.39933 19.816 6.447 19.174 5.637 18.364C4.82633 17.5533 4.18433 16.6007 3.711 15.506C3.237 14.4113 3 13.2427 3 12C3 10.7573 3.23667 9.58867 3.71 8.494C4.18333 7.39933 4.82567 6.447 5.637 5.637C6.44833 4.827 7.40067 4.18467 8.494 3.71C9.58933 3.23667 10.758 3 12 3C14.3307 3 16.3413 3.769 18.032 5.307C19.7227 6.845 20.6903 8.74467 20.935 11.006H19.923C19.7477 9.55867 19.225 8.25967 18.355 7.109C17.485 5.95833 16.3667 5.10933 15 4.562V5C15 5.55 14.8043 6.021 14.413 6.413C14.0217 6.805 13.5507 7.00067 13 7H11V9C11 9.28333 10.904 9.521 10.712 9.713C10.52 9.905 10.2827 10.0007 10 10H8V12H9.846V15H9L4.2 10.2C4.15 10.5 4.10433 10.8 4.063 11.1C4.02167 11.4 4.00067 11.7 4 12C4 14.1833 4.76667 16.0583 6.3 17.625C7.83333 19.1917 9.73333 19.9833 12 20V21ZM21.023 20.73L17.573 17.32C17.2743 17.5327 16.9507 17.6993 16.602 17.82C16.2533 17.94 15.886 18 15.5 18C14.5193 18 13.691 17.662 13.015 16.986C12.3383 16.3087 12 15.48 12 14.5C12 13.52 12.3383 12.6917 13.015 12.015C13.6917 11.3383 14.52 11 15.5 11C16.48 11 17.3087 11.3383 17.986 12.015C18.6633 12.6917 19.0013 13.52 19 14.5C19 14.8987 18.9367 15.2753 18.81 15.63C18.6833 15.9853 18.5067 16.3123 18.28 16.611L21.73 20.023L21.023 20.73ZM15.5 17C16.2 17 16.7917 16.7583 17.275 16.275C17.7583 15.7917 18 15.2 18 14.5C18 13.8 17.7583 13.2083 17.275 12.725C16.7917 12.2417 16.2 12 15.5 12C14.8 12 14.2083 12.2417 13.725 12.725C13.2417 13.2083 13 13.8 13 14.5C13 15.2 13.2417 15.7917 13.725 16.275C14.2083 16.7583 14.8 17 15.5 17Z" fill="black"/>
</svg>
