<svg width="18" height="19" viewBox="0 0 18 19" fill="none" xmlns="http://www.w3.org/2000/svg">
<path fill-rule="evenodd" clip-rule="evenodd" d="M15.75 0.152832H2.25C1.00912 0.152832 0 1.16196 0 2.40283V15.9028C0 17.1437 1.00912 18.1528 2.25 18.1528H9V11.9653H6.75V9.15283H9V6.90283C9 6.00773 9.35558 5.14928 9.98851 4.51635C10.6214 3.88341 11.4799 3.52783 12.375 3.52783H14.625V6.34033H13.5C12.879 6.34033 12.375 6.28183 12.375 6.90283V9.15283H15.1875L14.0625 11.9653H12.375V18.1528H15.75C16.9909 18.1528 18 17.1437 18 15.9028V2.40283C18 1.16196 16.9909 0.152832 15.75 0.152832Z" fill="#FB991C"/>
</svg>
