<svg width="24" height="24" viewBox="0 0 24 24" fill="none" xmlns="http://www.w3.org/2000/svg">
<path d="M1 12H5.5M1 18.75H7M1 5.25H19M15.2815 15.7815L18.3805 18.8805M16.6105 12.684C16.6105 13.858 16.1441 14.9839 15.314 15.814C14.4839 16.6441 13.358 17.1105 12.184 17.1105C11.01 17.1105 9.88412 16.6441 9.05399 15.814C8.22386 14.9839 7.7575 13.858 7.7575 12.684C7.7575 11.51 8.22386 10.3841 9.05399 9.55399C9.88412 8.72386 11.01 8.2575 12.184 8.2575C13.358 8.2575 14.4839 8.72386 15.314 9.55399C16.1441 10.3841 16.6105 11.51 16.6105 12.684Z" stroke="black" stroke-width="1.25"/>
</svg>
