<svg width="27" height="27" viewBox="0 0 27 27" fill="none" xmlns="http://www.w3.org/2000/svg">
<g clip-path="url(#clip0_16970_4421)">
<path d="M12.9715 0.740984C12.5041 0.896774 12.2981 1.06261 11.2126 2.13304C9.55419 3.76631 9.49389 3.79144 7.24248 3.79144C6.09165 3.79144 5.71977 3.80651 5.48357 3.86682C4.66442 4.08291 4.05634 4.72617 3.90055 5.55034C3.87543 5.69608 3.8503 6.4499 3.8503 7.22885C3.8503 9.43 3.82015 9.50538 2.18687 11.1588C1.22701 12.1287 1.0662 12.3146 0.925484 12.6161C0.769694 12.9428 0.759644 12.993 0.759644 13.5408C0.759644 14.0886 0.769694 14.1388 0.925484 14.4655C1.0662 14.767 1.22701 14.953 2.18185 15.9229C3.82015 17.5863 3.8503 17.6516 3.8503 19.903C3.8503 21.4861 3.88045 21.7223 4.13675 22.1947C4.29254 22.4811 4.70463 22.8882 4.9961 23.0339C5.44337 23.2601 5.69464 23.2902 7.21735 23.2902C9.48886 23.2902 9.55922 23.3204 11.2176 24.9587C12.1875 25.9135 12.3735 26.0743 12.675 26.215C13.0017 26.3708 13.0519 26.3809 13.5997 26.3809C14.1475 26.3809 14.1977 26.3708 14.5244 26.215C14.8259 26.0743 15.0118 25.9135 15.9817 24.9587C17.6401 23.3204 17.7105 23.2902 19.982 23.2902C21.5047 23.2902 21.756 23.2601 22.2033 23.0339C22.4947 22.8882 22.9068 22.4811 23.0626 22.1947C23.3189 21.7223 23.3491 21.4861 23.3491 19.9231C23.3491 17.6516 23.3792 17.5813 25.0175 15.9229C25.9724 14.953 26.1332 14.767 26.2739 14.4655C26.4297 14.1388 26.4397 14.0886 26.4397 13.5408C26.4397 12.993 26.4297 12.9428 26.2739 12.6161C26.1332 12.3146 25.9724 12.1287 25.0175 11.1588C23.3792 9.50035 23.3491 9.43 23.3491 7.15849C23.3491 5.59558 23.3189 5.35938 23.0626 4.88699C22.9068 4.60053 22.4947 4.19347 22.2033 4.04773C21.756 3.82159 21.5047 3.79144 19.982 3.79144C17.7105 3.79144 17.6401 3.76128 15.9817 2.12298C15.0068 1.16312 14.8259 1.00733 14.5244 0.866621C14.2178 0.720882 14.1223 0.700781 13.6751 0.690729C13.3585 0.680679 13.0971 0.700781 12.9715 0.740984ZM15.9516 14.2796L11.9162 18.315L9.56927 15.9681L7.21735 13.6162L7.94604 12.8875L8.67474 12.1588L10.2829 13.767L11.891 15.3751L15.1928 12.0734L18.4995 8.76664L19.2382 9.50538L19.982 10.2491L15.9516 14.2796Z" fill="#FB991C"/>
</g>
<defs>
<clipPath id="clip0_16970_4421">
<rect width="25.7303" height="25.7303" fill="white" transform="translate(0.734497 0.675781)"/>
</clipPath>
</defs>
</svg>
