<svg width="26" height="26" viewBox="0 0 26 26" fill="none" xmlns="http://www.w3.org/2000/svg">
<g clip-path="url(#clip0_16970_6433)">
<path d="M22.2306 10.7442C22.2306 18.1544 12.7032 24.506 12.7032 24.506C12.7032 24.506 3.17578 18.1544 3.17578 10.7442C3.17578 8.21738 4.17956 5.79405 5.96629 4.00731C7.75303 2.22057 10.1764 1.2168 12.7032 1.2168C15.23 1.2168 17.6534 2.22057 19.4401 4.00731C21.2268 5.79405 22.2306 8.21738 22.2306 10.7442Z" stroke="#FB991C" stroke-width="2.1172" stroke-linecap="round" stroke-linejoin="round"/>
<path d="M12.7031 13.92C14.4571 13.92 15.879 12.4981 15.879 10.7442C15.879 8.99021 14.4571 7.56836 12.7031 7.56836C10.9492 7.56836 9.52734 8.99021 9.52734 10.7442C9.52734 12.4981 10.9492 13.92 12.7031 13.92Z" stroke="#FB991C" stroke-width="2.1172" stroke-linecap="round" stroke-linejoin="round"/>
</g>
<defs>
<clipPath id="clip0_16970_6433">
<rect width="25.4064" height="25.4064" fill="white" transform="translate(0 0.158203)"/>
</clipPath>
</defs>
</svg>
