<svg width="24" height="25" viewBox="0 0 24 25" fill="none" xmlns="http://www.w3.org/2000/svg">
<path d="M8.5 19.4199H8C4 19.4199 2 18.4199 2 13.4199V8.41992C2 4.41992 4 2.41992 8 2.41992H16C20 2.41992 22 4.41992 22 8.41992V13.4199C22 17.4199 20 19.4199 16 19.4199H15.5C15.19 19.4199 14.89 19.5699 14.7 19.8199L13.2 21.8199C12.54 22.6999 11.46 22.6999 10.8 21.8199L9.3 19.8199C9.14 19.5999 8.77 19.4199 8.5 19.4199Z" stroke="#898E99" stroke-width="1.5" stroke-miterlimit="10" stroke-linecap="round" stroke-linejoin="round"/>
<path d="M15.9932 11.4199H16.0032M11.9922 11.4199H12.0022M7.99219 11.4199H8.00019" stroke="#898E99" stroke-width="2" stroke-linecap="round" stroke-linejoin="round"/>
</svg>
