<svg width="24" height="25" viewBox="0 0 24 25" fill="none" xmlns="http://www.w3.org/2000/svg">
<path d="M12 22.4199C17.5228 22.4199 22 17.9428 22 12.4199C22 6.89707 17.5228 2.41992 12 2.41992C6.47715 2.41992 2 6.89707 2 12.4199C2 17.9428 6.47715 22.4199 12 22.4199Z" stroke="#898E99" stroke-width="1.5" stroke-linecap="round" stroke-linejoin="round"/>
<path d="M12 18.4199C15.3137 18.4199 18 15.7336 18 12.4199C18 9.10621 15.3137 6.41992 12 6.41992C8.68629 6.41992 6 9.10621 6 12.4199C6 15.7336 8.68629 18.4199 12 18.4199Z" stroke="#898E99" stroke-width="1.5" stroke-linecap="round" stroke-linejoin="round"/>
<path d="M12 14.4199C13.1046 14.4199 14 13.5245 14 12.4199C14 11.3154 13.1046 10.4199 12 10.4199C10.8954 10.4199 10 11.3154 10 12.4199C10 13.5245 10.8954 14.4199 12 14.4199Z" stroke="#898E99" stroke-width="1.5" stroke-linecap="round" stroke-linejoin="round"/>
</svg>
