<svg width="24" height="25" viewBox="0 0 24 25" fill="none" xmlns="http://www.w3.org/2000/svg">
<path d="M2.25 19.1699C7.58561 19.1656 12.898 19.8721 18.047 21.2709C18.774 21.4689 19.5 20.9289 19.5 20.1749V19.1699M3.75 4.91992V5.66992C3.75 5.86883 3.67098 6.0596 3.53033 6.20025C3.38968 6.3409 3.19891 6.41992 3 6.41992H2.25M2.25 6.41992V6.04492C2.25 5.42392 2.754 4.91992 3.375 4.91992H20.25M2.25 6.41992V15.4199M20.25 4.91992V5.66992C20.25 6.08392 20.586 6.41992 21 6.41992H21.75M20.25 4.91992H20.625C21.246 4.91992 21.75 5.42392 21.75 6.04492V15.7949C21.75 16.4159 21.246 16.9199 20.625 16.9199H20.25M2.25 15.4199V15.7949C2.25 16.0933 2.36853 16.3794 2.5795 16.5904C2.79048 16.8014 3.07663 16.9199 3.375 16.9199H3.75M2.25 15.4199H3C3.19891 15.4199 3.38968 15.4989 3.53033 15.6396C3.67098 15.7802 3.75 15.971 3.75 16.1699V16.9199M20.25 16.9199V16.1699C20.25 15.971 20.329 15.7802 20.4697 15.6396C20.6103 15.4989 20.8011 15.4199 21 15.4199H21.75M20.25 16.9199H3.75M15 10.9199C15 11.7156 14.6839 12.4786 14.1213 13.0412C13.5587 13.6039 12.7956 13.9199 12 13.9199C11.2044 13.9199 10.4413 13.6039 9.87868 13.0412C9.31607 12.4786 9 11.7156 9 10.9199C9 10.1243 9.31607 9.36121 9.87868 8.7986C10.4413 8.23599 11.2044 7.91992 12 7.91992C12.7956 7.91992 13.5587 8.23599 14.1213 8.7986C14.6839 9.36121 15 10.1243 15 10.9199ZM18 10.9199H18.008V10.9279H18V10.9199ZM6 10.9199H6.008V10.9279H6V10.9199Z" stroke="#898E99" stroke-width="1.5" stroke-linecap="round" stroke-linejoin="round"/>
</svg>
