<svg width="27" height="26" viewBox="0 0 27 26" fill="none" xmlns="http://www.w3.org/2000/svg">
<path d="M23.9208 18.0698V21.2456C23.922 21.5404 23.8616 21.8323 23.7435 22.1024C23.6254 22.3725 23.4521 22.615 23.2349 22.8143C23.0176 23.0136 22.7612 23.1654 22.4819 23.2598C22.2026 23.3543 21.9066 23.3894 21.613 23.3628C18.3555 23.0089 15.2265 21.8958 12.4773 20.1129C9.91953 18.4876 7.75099 16.3191 6.12569 13.7613C4.33663 10.9996 3.22326 7.85537 2.87578 4.58324C2.84933 4.29051 2.88412 3.99547 2.97794 3.71691C3.07175 3.43835 3.22255 3.18239 3.42071 2.9653C3.61888 2.74821 3.86007 2.57477 4.12894 2.45601C4.39781 2.33725 4.68847 2.27577 4.9824 2.27549H8.1582C8.67195 2.27044 9.17 2.45236 9.55954 2.78736C9.94907 3.12236 10.2035 3.58757 10.2754 4.09629C10.4094 5.11261 10.658 6.11052 11.0164 7.07096C11.1589 7.44986 11.1897 7.86164 11.1052 8.25752C11.0208 8.6534 10.8247 9.01678 10.5401 9.30461L9.19563 10.649C10.7026 13.2993 12.897 15.4937 15.5472 17.0006L16.8917 15.6562C17.1795 15.3716 17.5429 15.1754 17.9387 15.091C18.3346 15.0066 18.7464 15.0374 19.1253 15.1798C20.0857 15.5382 21.0837 15.7868 22.1 15.9209C22.6142 15.9934 23.0838 16.2524 23.4196 16.6486C23.7553 17.0449 23.9337 17.5507 23.9208 18.0698Z" stroke="#FB991C" stroke-width="2.1172" stroke-linecap="round" stroke-linejoin="round"/>
</svg>
