<svg width="18" height="18" viewBox="0 0 18 18" fill="none" xmlns="http://www.w3.org/2000/svg">
<g clip-path="url(#clip0_16970_34907)">
<path d="M17.7331 8.97496C17.7331 13.815 13.8081 17.74 8.96812 17.74C4.12812 17.74 0.203125 13.815 0.203125 8.97496C0.203125 4.13496 4.12812 0.209961 8.96812 0.209961C13.8081 0.209961 17.7331 4.13496 17.7331 8.97496Z" fill="#CA2127"/>
<path d="M8.23333 3.14484C5.76335 3.40984 3.30337 5.30984 3.20337 8.02984C3.13837 9.68984 3.83337 10.9348 5.49335 11.2848C5.68335 10.4998 5.71835 10.0748 5.71835 10.0748C5.71835 10.0748 4.98836 9.37484 4.91336 8.92984C4.30336 5.34984 9.24832 2.90484 11.8433 5.40484C13.6333 7.13984 12.4533 12.4748 9.56332 11.9198C6.79334 11.3898 10.9183 7.14484 8.70833 6.30984C6.91334 5.62984 5.95835 8.38484 6.80834 9.74984C6.30835 12.0998 5.23336 14.3148 5.66835 17.2598C7.08334 16.2848 7.55834 14.4148 7.94833 12.4648C8.65833 12.8748 9.03833 13.3048 9.94332 13.3698C13.2833 13.6148 15.1483 10.1948 14.6933 7.03484C14.2833 4.23484 11.3533 2.80984 8.23333 3.14484Z" fill="white"/>
</g>
<defs>
<clipPath id="clip0_16970_34907">
<rect width="18" height="18" fill="white"/>
</clipPath>
</defs>
</svg>
