<svg width="24" height="24" viewBox="0 0 24 24" fill="none" xmlns="http://www.w3.org/2000/svg">
<path d="M6.5 9H5.5M10.5 9H9.5M6.5 6H5.5M10.5 6H9.5M18.5 15H17.5M18.5 11H17.5M14 8V22H18C19.886 22 20.828 22 21.414 21.414C22 20.828 22 19.886 22 18V12C22 10.114 22 9.172 21.414 8.586C20.828 8 19.886 8 18 8H14ZM14 8C14 5.172 14 3.757 13.121 2.879C12.243 2 10.828 2 8 2C5.172 2 3.757 2 2.879 2.879C2 3.757 2 5.172 2 8V10M8.025 13.955C8.03082 14.2213 7.98337 14.4862 7.88544 14.7339C7.78751 14.9817 7.64107 15.2074 7.45471 15.3977C7.26836 15.5881 7.04584 15.7393 6.80024 15.8425C6.55463 15.9457 6.29088 15.9988 6.02448 15.9987C5.75807 15.9986 5.49438 15.9452 5.24887 15.8418C5.00337 15.7383 4.78101 15.5869 4.59485 15.3963C4.40868 15.2057 4.26246 14.9799 4.16478 14.7321C4.06709 14.4842 4.01991 14.2193 4.026 13.953C4.03795 13.4304 4.25399 12.9333 4.62788 12.5681C5.00176 12.2028 5.50379 11.9984 6.02648 11.9987C6.54917 11.999 7.05099 12.2038 7.42451 12.5695C7.79803 12.9351 8.01358 13.4324 8.025 13.955ZM2.07 20.21C3.128 18.582 4.809 17.972 6.025 17.973C7.241 17.974 8.872 18.582 9.931 20.21C9.999 20.315 10.018 20.445 9.956 20.554C9.709 20.993 8.94 21.864 8.386 21.922C7.747 21.99 6.079 22 6.026 22C5.973 22 4.253 21.99 3.616 21.922C3.06 21.863 2.292 20.993 2.044 20.554C2.01618 20.4998 2.00388 20.439 2.00847 20.3783C2.01306 20.3176 2.03435 20.2594 2.07 20.21Z" stroke="black" stroke-width="1.25" stroke-linecap="round" stroke-linejoin="round"/>
</svg>
