<svg width="24" height="24" viewBox="0 0 24 24" fill="none" xmlns="http://www.w3.org/2000/svg">
<path d="M16.4088 3.99975C18.3488 3.99975 19.9088 5.56975 19.9088 7.49975C19.9088 9.38975 18.4088 10.9297 16.5388 10.9997C16.4524 10.9897 16.3651 10.9897 16.2788 10.9997M18.3388 19.9997C19.0588 19.8497 19.7387 19.5597 20.2987 19.1297C21.8587 17.9597 21.8587 16.0297 20.2987 14.8597C19.7487 14.4397 19.0788 14.1597 18.3688 13.9997M9.15875 10.8697C9.05875 10.8597 8.93875 10.8597 8.82875 10.8697C7.68095 10.8308 6.59339 10.3466 5.79638 9.51971C4.99937 8.69283 4.55549 7.5882 4.55875 6.43975C4.55875 3.98975 6.53875 1.99975 8.99875 1.99975C10.175 1.97853 11.3115 2.42544 12.1582 3.24216C13.0049 4.05888 13.4925 5.17851 13.5138 6.35475C13.535 7.53098 13.0881 8.66747 12.2713 9.5142C11.4546 10.3609 10.335 10.8485 9.15875 10.8697ZM4.15875 14.5597C1.73875 16.1797 1.73875 18.8197 4.15875 20.4297C6.90875 22.2697 11.4188 22.2697 14.1688 20.4297C16.5888 18.8097 16.5888 16.1697 14.1688 14.5597C11.4288 12.7297 6.91875 12.7297 4.15875 14.5597Z" stroke="black" stroke-width="1.5" stroke-linecap="round" stroke-linejoin="round"/>
</svg>
