<svg width="27" height="27" viewBox="0 0 27 27" fill="none" xmlns="http://www.w3.org/2000/svg">
<g clip-path="url(#clip0_16970_4430)">
<path d="M2.91014 0.833769C1.90505 1.10514 1.12108 1.88409 0.814529 2.91431C0.744173 3.16055 0.734122 4.04001 0.734122 11.9903C0.734122 21.6743 0.71402 21.0059 1.0457 21.6995C1.27185 22.1668 1.83972 22.7347 2.30709 22.9608C2.97045 23.2825 2.83979 23.2724 6.99584 23.2724H10.775L10.5488 22.7196C9.71964 20.6793 9.66436 18.1264 10.4081 16.1514C10.4785 15.9704 10.5338 15.8046 10.5338 15.7795C10.5338 15.7543 9.21207 15.7292 7.59889 15.7242L4.66403 15.7091L4.44291 15.5533C3.77955 15.0659 3.85996 14.1412 4.60372 13.7442C4.76956 13.6537 4.94545 13.6487 7.69438 13.6487H10.6091L10.8202 13.7592C10.9308 13.8195 11.0966 13.9552 11.1871 14.0608C11.3228 14.2266 11.3479 14.2417 11.3931 14.1663C11.7298 13.5733 12.9108 12.3169 13.6194 11.7842L14.0164 11.4877L9.37288 11.4626C5.12637 11.4375 4.71428 11.4325 4.57357 11.352C4.38763 11.2515 4.11123 10.95 4.0459 10.7741C3.97554 10.5832 3.99062 10.166 4.08108 9.97507C4.19164 9.7439 4.50824 9.47253 4.73941 9.4072C5.01581 9.32679 14.6999 9.33181 14.9612 9.4072C15.3632 9.53283 15.71 9.97507 15.71 10.3721C15.71 10.4726 15.72 10.558 15.7301 10.558C15.7401 10.558 15.9914 10.4776 16.2779 10.3821C16.9563 10.156 17.5845 10.0253 18.3634 9.94492L18.9765 9.88461V6.58289V3.28117L18.8609 2.87913C18.7956 2.65801 18.6649 2.34643 18.5695 2.18562C18.3282 1.77353 17.8458 1.31119 17.4387 1.10012C16.7502 0.738285 17.2176 0.758387 9.82517 0.763412C4.28209 0.763412 3.12624 0.778488 2.91014 0.833769ZM9.8905 5.26119C10.5438 5.73861 10.4735 6.66832 9.75482 7.05528C9.55882 7.16584 9.51359 7.16584 7.16671 7.16584C4.81982 7.16584 4.77459 7.16584 4.5786 7.05528C4.16148 6.83416 3.98057 6.51253 4.01072 6.05522C4.03585 5.66323 4.21676 5.37176 4.55347 5.19586L4.77459 5.07525L7.22199 5.09033L9.66938 5.10541L9.8905 5.26119Z" fill="#FB991C"/>
<path d="M18.0216 12.0853C16.509 12.3516 15.1722 13.0501 14.1018 14.1256C13.0816 15.1458 12.4132 16.377 12.1067 17.8042C11.976 18.4023 11.976 20.1009 12.1067 20.6989C12.7248 23.5785 14.9058 25.7545 17.7854 26.3726C18.3734 26.5033 20.0821 26.4983 20.6751 26.3726C23.5496 25.7545 25.7307 23.5734 26.3488 20.6989C26.4795 20.1009 26.4795 18.4023 26.3488 17.8042C26.0423 16.382 25.3638 15.1307 24.3537 14.1256C23.3536 13.1255 22.1174 12.4471 20.7354 12.1405C20.2278 12.025 18.5493 11.9948 18.0216 12.0853ZM19.6599 15.3619C19.8911 15.4724 20.1625 15.789 20.2278 16.0202C20.258 16.1257 20.2831 16.6584 20.2831 17.2012V18.1962H21.2781C21.8209 18.1962 22.3536 18.2213 22.4591 18.2515C22.6903 18.3168 23.0069 18.5882 23.1174 18.8194C23.223 19.0405 23.223 19.4626 23.1174 19.6837C23.0069 19.9149 22.6903 20.1863 22.4591 20.2516C22.3536 20.2818 21.8209 20.3069 21.2781 20.3069H20.2831V21.2969C20.2831 21.8447 20.258 22.3774 20.2278 22.4829C20.1625 22.7141 19.8911 23.0307 19.6599 23.1413C19.4388 23.2468 19.0167 23.2468 18.7955 23.1413C18.5644 23.0307 18.293 22.7141 18.2277 22.4829C18.1975 22.3774 18.1724 21.8447 18.1724 21.2969V20.3069H17.1824C16.6346 20.3069 16.1019 20.2818 15.9964 20.2516C15.7652 20.1863 15.4486 19.9149 15.338 19.6837C15.2325 19.4626 15.2325 19.0405 15.338 18.8194C15.4486 18.5882 15.7652 18.3168 15.9964 18.2515C16.1019 18.2213 16.6346 18.1962 17.1824 18.1962H18.1724V17.2012C18.1724 16.6584 18.1975 16.1257 18.2277 16.0202C18.288 15.794 18.5593 15.4774 18.7905 15.3619C18.9966 15.2613 19.4438 15.2613 19.6599 15.3619Z" fill="#FB991C"/>
</g>
<defs>
<clipPath id="clip0_16970_4430">
<rect width="25.7303" height="25.7303" fill="white" transform="translate(0.734375 0.757812)"/>
</clipPath>
</defs>
</svg>
