<svg width="16" height="16" viewBox="0 0 16 16" fill="none" xmlns="http://www.w3.org/2000/svg">
<path d="M2.9974 11.0002C1.9974 11.8402 1.66406 14.3335 1.66406 14.3335C1.66406 14.3335 4.1574 14.0002 4.9974 13.0002C5.47073 12.4402 5.46406 11.5802 4.9374 11.0602C4.67827 10.8129 4.33692 10.67 3.97888 10.6589C3.62084 10.6478 3.27131 10.7694 2.9974 11.0002Z" stroke="#767F8C" stroke-width="1.3" stroke-linecap="round" stroke-linejoin="round"/>
<path d="M8 9.99984L6 7.99984C6.35476 7.07946 6.80147 6.19722 7.33333 5.36651C8.11012 4.1245 9.19175 3.10187 10.4753 2.3959C11.7589 1.68993 13.2018 1.32409 14.6667 1.33317C14.6667 3.14651 14.1467 6.33317 10.6667 8.66651C9.82459 9.19899 8.93123 9.64567 8 9.99984Z" stroke="#767F8C" stroke-width="1.3" stroke-linecap="round" stroke-linejoin="round"/>
<path d="M5.9974 8.00034H2.66406C2.66406 8.00034 3.03073 5.98034 3.9974 5.33367C5.0774 4.61367 7.33073 5.33367 7.33073 5.33367" stroke="#767F8C" stroke-width="1.3" stroke-linecap="round" stroke-linejoin="round"/>
<path d="M8 10.0003V13.3337C8 13.3337 10.02 12.967 10.6667 12.0003C11.3867 10.9203 10.6667 8.66699 10.6667 8.66699" stroke="#767F8C" stroke-width="1.3" stroke-linecap="round" stroke-linejoin="round"/>
</svg>
