<svg width="24" height="25" viewBox="0 0 24 25" fill="none" xmlns="http://www.w3.org/2000/svg">
<path d="M12 15.4199C12.7956 15.4199 13.5587 15.1039 14.1213 14.5412C14.6839 13.9786 15 13.2156 15 12.4199C15 11.6243 14.6839 10.8612 14.1213 10.2986C13.5587 9.73599 12.7956 9.41992 12 9.41992C11.2044 9.41992 10.4413 9.73599 9.87868 10.2986C9.31607 10.8612 9 11.6243 9 12.4199C9 13.2156 9.31607 13.9786 9.87868 14.5412C10.4413 15.1039 11.2044 15.4199 12 15.4199Z" stroke="#898E99" stroke-width="1.5" stroke-miterlimit="10" stroke-linecap="round" stroke-linejoin="round"/>
<path d="M2 13.3003V11.5403C2 10.5003 2.85 9.64035 3.9 9.64035C5.71 9.64035 6.45 8.36035 5.54 6.79035C5.02 5.89035 5.33 4.72035 6.24 4.20035L7.97 3.21035C8.76 2.74035 9.78 3.02035 10.25 3.81035L10.36 4.00035C11.26 5.57035 12.74 5.57035 13.65 4.00035L13.76 3.81035C14.23 3.02035 15.25 2.74035 16.04 3.21035L17.77 4.20035C18.68 4.72035 18.99 5.89035 18.47 6.79035C17.56 8.36035 18.3 9.64035 20.11 9.64035C21.15 9.64035 22.01 10.4903 22.01 11.5403V13.3003C22.01 14.3403 21.16 15.2003 20.11 15.2003C18.3 15.2003 17.56 16.4803 18.47 18.0503C18.99 18.9603 18.68 20.1203 17.77 20.6403L16.04 21.6303C15.25 22.1003 14.23 21.8203 13.76 21.0303L13.65 20.8403C12.75 19.2703 11.27 19.2703 10.36 20.8403L10.25 21.0303C9.78 21.8203 8.76 22.1003 7.97 21.6303L6.24 20.6403C5.8041 20.3894 5.48558 19.9757 5.35434 19.4901C5.22311 19.0045 5.28988 18.4867 5.54 18.0503C6.45 16.4803 5.71 15.2003 3.9 15.2003C2.85 15.2003 2 14.3403 2 13.3003Z" stroke="#898E99" stroke-width="1.5" stroke-miterlimit="10" stroke-linecap="round" stroke-linejoin="round"/>
</svg>
