<svg width="18" height="18" viewBox="0 0 18 18" fill="none" xmlns="http://www.w3.org/2000/svg">
<path d="M8.51911 11.6417L13.3774 16.5C13.7941 16.9033 14.3526 17.1268 14.9325 17.1221C15.5124 17.1173 16.0672 16.8849 16.4773 16.4748C16.8873 16.0648 17.1198 15.51 17.1245 14.9301C17.1292 14.3502 16.9058 13.7917 16.5024 13.375L11.6049 8.4775M8.51911 11.6417L10.5991 9.11667C10.8633 8.79667 11.2158 8.595 11.6058 8.47833C12.0641 8.34167 12.5749 8.32167 13.0583 8.36167C13.7098 8.41761 14.3646 8.30222 14.9578 8.02693C15.5509 7.75164 16.0618 7.32603 16.4396 6.79234C16.8175 6.25864 17.0493 5.63542 17.1119 4.9845C17.1745 4.33358 17.0658 3.67761 16.7966 3.08167L14.0666 5.8125C13.6099 5.70688 13.1919 5.47514 12.8605 5.14365C12.529 4.81216 12.2972 4.39425 12.1916 3.9375L14.9216 1.2075C14.3257 0.938303 13.6697 0.82962 13.0188 0.892236C12.3679 0.954853 11.7446 1.18659 11.2109 1.56446C10.6772 1.94232 10.2516 2.45318 9.97634 3.04633C9.70106 3.63948 9.58566 4.29431 9.64161 4.94583C9.71744 5.8425 9.58244 6.8325 8.88827 7.40417L8.80327 7.475M8.51911 11.6417L4.63994 16.3525C4.45193 16.5817 4.21802 16.7689 3.95327 16.9023C3.68851 17.0356 3.39878 17.112 3.10271 17.1265C2.80665 17.1411 2.51081 17.0935 2.23425 16.9869C1.95768 16.8802 1.70651 16.7168 1.49691 16.5072C1.28731 16.2976 1.12391 16.0464 1.01724 15.7699C0.910575 15.4933 0.862995 15.1975 0.877567 14.9014C0.892139 14.6053 0.96854 14.3156 1.10185 14.0508C1.23516 13.7861 1.42243 13.5522 1.65161 13.3642L7.34911 8.6725L3.92661 5.25H2.75244L0.877439 2.125L2.12744 0.875L5.25244 2.75V3.92417L8.80244 7.47417L7.34827 8.67167M14.3149 14.3125L12.1274 12.125M3.05827 14.9375H3.06494V14.9442H3.05827V14.9375Z" stroke="#898E99" stroke-linecap="round" stroke-linejoin="round"/>
</svg>
