<svg width="28" height="28" viewBox="0 0 28 28" fill="none" xmlns="http://www.w3.org/2000/svg">
<g clip-path="url(#clip0_16970_33628)">
<path fill-rule="evenodd" clip-rule="evenodd" d="M19.3867 15.0381C20.9435 16.0949 22.0344 17.5267 22.0344 19.4358V22.8449H25.4435C26.0685 22.8449 26.5799 22.3335 26.5799 21.7085V19.4358C26.5799 16.9585 22.5231 15.4926 19.3867 15.0381Z" fill="white"/>
<path d="M10.6705 13.753C13.1808 13.753 15.2159 11.7179 15.2159 9.20756C15.2159 6.69718 13.1808 4.66211 10.6705 4.66211C8.16007 4.66211 6.125 6.69718 6.125 9.20756C6.125 11.7179 8.16007 13.753 10.6705 13.753Z" fill="white"/>
<path fill-rule="evenodd" clip-rule="evenodd" d="M17.4918 13.753C20.0032 13.753 22.0373 11.7189 22.0373 9.20756C22.0373 6.6962 20.0032 4.66211 17.4918 4.66211C16.9577 4.66211 16.4577 4.77575 15.9805 4.93484C16.9237 6.10529 17.4918 7.59393 17.4918 9.20756C17.4918 10.8212 16.9237 12.3098 15.9805 13.4803C16.4577 13.6394 16.9577 13.753 17.4918 13.753Z" fill="white"/>
<path fill-rule="evenodd" clip-rule="evenodd" d="M10.6729 14.8896C7.63885 14.8896 1.58203 16.4124 1.58203 19.4351V21.7078C1.58203 22.3328 2.09339 22.8442 2.71839 22.8442H18.6275C19.2525 22.8442 19.7639 22.3328 19.7639 21.7078V19.4351C19.7639 16.4124 13.707 14.8896 10.6729 14.8896Z" fill="white"/>
</g>
<defs>
<clipPath id="clip0_16970_33628">
<rect width="27.2727" height="27.2727" fill="white" transform="translate(0.445312 0.117188)"/>
</clipPath>
</defs>
</svg>
