<svg width="16" height="16" viewBox="0 0 16 16" fill="none" xmlns="http://www.w3.org/2000/svg">
<path d="M5.00378 14.4026C11.0081 14.4026 14.2917 9.45675 14.2917 5.16789C14.2917 5.02743 14.2888 4.88761 14.2824 4.74837C14.9214 4.28872 15.4728 3.7196 15.9108 3.06768C15.3259 3.32623 14.6965 3.50025 14.0362 3.5787C14.7101 3.1769 15.2275 2.54123 15.4716 1.78352C14.8308 2.16148 14.1298 2.42791 13.3988 2.57135C12.8031 1.94047 11.955 1.5459 11.016 1.5459C9.21328 1.5459 7.75143 2.99941 7.75143 4.79109C7.75143 5.04581 7.78011 5.2935 7.83612 5.53115C5.12304 5.39542 2.71728 4.1039 1.10722 2.14007C0.817235 2.63539 0.664706 3.19832 0.665213 3.77139C0.665213 4.89745 1.24149 5.89149 2.11788 6.47307C1.59949 6.45733 1.09247 6.31811 0.639471 6.06712C0.638986 6.08075 0.638986 6.09402 0.638986 6.10858C0.638986 7.68041 1.76419 8.99279 3.25786 9.29016C2.97733 9.36613 2.68785 9.40453 2.39709 9.40436C2.18712 9.40436 1.98248 9.38382 1.78359 9.34587C2.19918 10.6355 3.40426 11.5739 4.83303 11.6001C3.71575 12.4708 2.30832 12.9894 0.778658 12.9894C0.518442 12.9896 0.258439 12.9746 0 12.9445C1.44471 13.8652 3.16017 14.4024 5.00394 14.4024" fill="#022539"/>
</svg>
