<svg width="18" height="18" viewBox="0 0 18 18" fill="none" xmlns="http://www.w3.org/2000/svg">
<path d="M3.9575 1.43945C2.56574 1.43945 1.4375 2.56769 1.4375 3.95945V14.0395C1.4375 15.4312 2.56574 16.5595 3.9575 16.5595H14.0375C15.4293 16.5595 16.5575 15.4312 16.5575 14.0395V3.95945C16.5575 2.56769 15.4293 1.43945 14.0375 1.43945H3.9575ZM4.70844 4.67945H7.56594L9.59516 7.56297L12.0575 4.67945H12.9575L10.0016 8.14023L13.6466 13.3195H10.7898L8.435 9.97398L5.5775 13.3195H4.6775L8.02859 9.39672L4.70844 4.67945ZM6.08656 5.39945L11.1652 12.5995H12.2684L7.18977 5.39945H6.08656Z" fill="black"/>
</svg>
